<?xml version="1.0" encoding="UTF-8"?>
<svg id="_图层_1" data-name="图层 1" xmlns="http://www.w3.org/2000/svg" viewBox="0 0 241.26 49.45">
  <defs>
    <style>
      .cls-1 {
        fill: #040001;
        stroke: #fff;
        stroke-miterlimit: 10;
      }

      .cls-1, .cls-2, .cls-3, .cls-4 {
        fill-rule: evenodd;
      }

      .cls-2 {
        fill: #f2f4f7;
      }

      .cls-3 {
        fill: #fdfdfe;
      }

      .cls-4 {
        fill: #04060b;
      }
    </style>
  </defs>
  <path class="cls-4" d="M109.25,0c5.81-.13,6.08,7,1.3,7.95-3.21,.64-5.89-2.42-4.6-5.55,.63-1.54,1.72-1.76,3.3-2.4Z"/>
  <path class="cls-4" d="M0,.75H7.25c4.28,9.87,8.57,19.73,12.85,29.6h.2C24.55,20.49,28.8,10.62,33.05,.75h7.3c-.02,12.58-.03,25.17-.05,37.75h-6.15c-.02-8.68-.03-17.37-.05-26.05h-.15c-3.72,8.68-7.43,17.37-11.15,26.05-1.78-.02-3.57-.03-5.35-.05-2.77-6.48-5.53-12.97-8.3-19.45-.68-1.6-1.37-3.2-2.05-4.8-.24-.56-.38-1.48-.9-1.75-.02,8.68-.03,17.37-.05,26.05H0V.75Z"/>
  <path class="cls-4" d="M147.5,.75h30.95c-.02,1.77-.03,3.53-.05,5.3h-12.35V38.5h-6.15V6.05c-4.13-.02-8.27-.03-12.4-.05V.75Z"/>
  <path class="cls-4" d="M100.05,19.1c-1.97-.02-3.93-.03-5.9-.05-.42-2.51-2.23-3.27-4.8-3.7-2.72-.45-6.96,.62-6.1,3.4,.62,1.99,3.91,2.34,5.95,2.95,5.17,1.54,13.18,2.82,11.65,10.5-.16,.8-.39,1.58-.7,2.25-1.87,4-9.28,5.8-15.45,4.45-4.56-1-8.26-3.88-8.3-9.3h5.85c.39,2.9,1.85,4.15,4.7,4.65,3.23,.56,8.45-.45,7.8-3.8-.49-2.56-3.64-3.03-6.1-3.65-5.01-1.27-10.57-2.02-11.55-7.35-.28-1.55,.09-3.21,.6-4.3,1.78-3.8,8.78-5.76,14.6-4.4,4.25,.99,7.46,3.44,7.75,8.35Z"/>
  <path class="cls-4" d="M139.15,28.35h6v.05c-1.27,4.29-2.08,6.97-5.5,9.1-1.11,.69-2.51,1.13-3.95,1.45-7.4,1.63-13.07-2.21-15.1-6.85-.79-1.79-1.02-3.69-1.4-6-.37-2.28,.2-4.85,.7-6.45,1.82-5.78,7.14-10.74,15.6-9.05,1.24,.25,2.45,.54,3.5,1,3.51,1.53,5.2,4.62,6.05,8.85h-6c-.57-3.81-4.9-6.53-9.4-4.6-2.86,1.23-4.97,5.76-4.25,10.35,.54,3.47,1.33,6.36,4.1,7.55,4.85,2.09,9.37-.92,9.65-5.4Z"/>
  <path class="cls-4" d="M194.25,10.4c8.55-.12,12.85,4.36,14.3,11.35,.35,1.68,.46,4.06,.1,5.85-.27,1.34-.56,2.62-1.05,3.75-2.02,4.7-5.49,6.87-11.3,7.85-2.3,.39-4.84-.25-6.35-.85-4.08-1.61-6.72-4.5-8.05-8.85-.34-1.11-.29-2.2-.5-3.5-.39-2.43,.18-5.22,.85-6.95,1.38-3.54,3.88-6.36,7.4-7.75,1-.25,2-.5,3-.75,.53-.05,1.07-.1,1.6-.15Z"/>
  <path class="cls-1" d="M220.15,48.95h-6.05V11.15h5.6c.02,.95,.03,1.9,.05,2.85,1.17-1.24,2.31-2.27,4.05-2.95,1.22-.48,3.24-.88,4.9-.6,1.2,.2,2.14,.14,3.15,.45,4.46,1.37,7.02,4.68,8.25,9.3,.39,1.48,.87,3.77,.55,5.75-.13,1.05-.27,2.1-.4,3.15-1.02,4.04-3.15,7.51-6.65,9.05-4.67,2.05-9.04,.92-12-1.8-.49-.45-1.12-.96-1.4-1.6h-.05v14.2Z"/>
  <path class="cls-4" d="M47.2,11.15h6.05v13.85c0,2.58-.17,5.34,.8,6.95,.89,1.48,2.32,1.92,4.4,2.25,2.16,.34,3.89-.95,4.75-2,.98-1.2,2.03-2.51,2.4-4.3V11.15h6v27.35h-6c-.02-1.17-.03-2.33-.05-3.5-1.23,1.3-2.44,2.58-4.2,3.35-.99,.44-2.11,.65-3.35,.85-1.58,.26-3.38-.11-4.5-.45-6.28-1.92-6.3-7.2-6.3-15.3V11.15Z"/>
  <path class="cls-4" d="M106.75,11.15h6.05c-.02,9.12-.03,18.23-.05,27.35-2-.02-4-.03-6-.05V11.15Z"/>
  <path class="cls-3" d="M226.15,15.3c-.65,.17-1.3,.33-1.95,.5-2.05,.88-3.37,3.04-3.95,5.4-1.46,5.97,1.13,14.11,7.35,13.15,3.04-.47,4.91-1.52,5.95-3.95,.69-1.62,1.21-4.29,.85-6.65-.18-1.17-.12-2.14-.4-3.15-.98-3.59-3.17-5.34-7.85-5.3Z"/>
  <path class="cls-2" d="M194.2,15.35c-.73,.29-1.53,.26-2.2,.55-2.03,.87-3.43,2.97-4.05,5.25-1.67,6.14,1.19,14.19,7.8,13.15,1.35-.21,2.48-.51,3.4-1.15,3.19-2.23,4.63-8.42,2.7-13.15-1.23-3-3.33-4.68-7.65-4.65Z"/>
</svg>