<?xml version="1.0" standalone="no"?><!DOCTYPE svg PUBLIC "-//W3C//DTD SVG 1.1//EN" "http://www.w3.org/Graphics/SVG/1.1/DTD/svg11.dtd"><svg t="1716039129384" class="icon" viewBox="0 0 1024 1024" version="1.1" xmlns="http://www.w3.org/2000/svg" p-id="6212" xmlns:xlink="http://www.w3.org/1999/xlink" width="256" height="256"><path d="M341.333333 662.826667V234.666667L938.666667 85.333333v651.946667h-0.426667A170.666667 170.666667 0 1 1 853.333333 577.536V194.645333l-426.666666 106.666667V822.613333h-0.426667A170.666667 170.666667 0 1 1 341.333333 662.826667zM256 896a85.333333 85.333333 0 1 0 0-170.666667 85.333333 85.333333 0 0 0 0 170.666667z m512-85.333333a85.333333 85.333333 0 1 0 0-170.666667 85.333333 85.333333 0 0 0 0 170.666667z" fill="#e46ca7" p-id="6213"></path></svg>