<?xml version="1.0" encoding="UTF-8"?>
<svg version="1.1" xmlns="http://www.w3.org/2000/svg" width="1890" height="1417">
<path d="M0 0 C623.7 0 1247.4 0 1890 0 C1890 467.61 1890 935.22 1890 1417 C1266.3 1417 642.6 1417 0 1417 C0 949.39 0 481.78 0 0 Z " fill="#000000" transform="translate(0,0)"/>
<path d="M0 0 C3.69390538 -0.00438793 7.38662487 -0.04094495 11.08032227 -0.07861328 C47.33854192 -0.24737229 87.99463636 5.98820269 115.76196289 31.37060547 C116.60243164 32.11826172 117.44290039 32.86591797 118.30883789 33.63623047 C137.0882262 51.24919714 147.36118033 77.21111844 148.96875 102.6418457 C150.00196306 138.21926284 142.47527594 171.54099029 117.49414062 198.0390625 C106.57373571 209.23108348 93.95612707 216.99846713 79.76196289 223.37060547 C79.10341309 223.67595215 78.44486328 223.98129883 77.76635742 224.29589844 C55.36504314 234.53696792 30.44307647 237.55860151 6.04443359 237.5559082 C3.83094145 237.55809906 1.61794598 237.57634712 -0.59545898 237.59521484 C-2.04793129 237.59814982 -3.50040589 237.60013392 -4.95288086 237.60107422 C-6.23283936 237.60518311 -7.51279785 237.60929199 -8.83154297 237.61352539 C-14.67280883 237.29150979 -20.45592913 236.26016054 -26.23803711 235.37060547 C-26.23803711 284.21060547 -26.23803711 333.05060547 -26.23803711 383.37060547 C-45.04803711 383.37060547 -63.85803711 383.37060547 -83.23803711 383.37060547 C-83.23803711 259.29060547 -83.23803711 135.21060547 -83.23803711 7.37060547 C-76.47661036 5.86806619 -70.06681482 4.70809707 -63.23803711 3.87060547 C-62.34342773 3.75330078 -61.44881836 3.63599609 -60.52709961 3.51513672 C-40.39837758 1.00579202 -20.27707215 -0.00268091 0 0 Z " fill="#FEFEFE" transform="translate(232.238037109375,458.62939453125)"/>
<path d="M0 0 C2.28808256 0.00316235 4.57486836 -0.02042884 6.86279297 -0.0456543 C20.688452 -0.1065664 34.27548323 1.46795413 47.23388672 6.56567383 C48.02738525 6.87085938 48.82088379 7.17604492 49.63842773 7.49047852 C61.91230683 12.34959126 71.16449241 19.08576755 80.42138672 28.31567383 C81.07880859 28.94989258 81.73623047 29.58411133 82.41357422 30.23754883 C102.16741955 50.81067807 106.73103901 82.85910022 106.70849609 110.08154297 C106.71454075 111.59484213 106.72147004 113.10813797 106.72920227 114.62142944 C106.7439488 117.84927904 106.75280438 121.07706833 106.75691223 124.30494881 C106.76371188 129.43280622 106.78556682 134.56053687 106.80944824 139.68833923 C106.85813791 150.58492075 106.89059675 161.48152927 106.92138672 172.37817383 C106.95463202 184.12469431 106.99095043 195.87116426 107.04551744 207.61760801 C107.06481232 211.86919073 107.08019232 216.1207072 107.08586121 220.37233162 C107.11368674 240.52009236 107.56645688 260.33116496 110.42138672 280.31567383 C92.93138672 280.31567383 75.44138672 280.31567383 57.42138672 280.31567383 C54.42138672 257.31567383 54.42138672 257.31567383 54.42138672 248.31567383 C51.83483612 250.87883789 49.29085934 253.4549549 46.80029297 256.11254883 C35.97769111 267.56656538 24.12682819 274.70843292 9.42138672 280.31567383 C8.61056641 280.6327832 7.79974609 280.94989258 6.96435547 281.27661133 C-3.10661145 284.94208037 -13.69289351 285.70659556 -24.32861328 285.69067383 C-25.46169922 285.6890625 -26.59478516 285.68745117 -27.76220703 285.68579102 C-36.94448857 285.55229718 -44.89361812 284.30763388 -53.57861328 281.31567383 C-54.94759766 280.88254883 -54.94759766 280.88254883 -56.34423828 280.44067383 C-75.20912708 273.79643626 -89.22387865 258.53314462 -97.89111328 241.00317383 C-106.6531263 220.40390089 -108.69396636 194.55120648 -100.57861328 173.31567383 C-92.97057398 154.64698617 -80.68021816 139.14120897 -63.57861328 128.31567383 C-62.46486328 127.56737305 -62.46486328 127.56737305 -61.32861328 126.80395508 C-43.09118224 115.06668949 -20.82955978 109.4791536 0.41064453 106.60375977 C3.07843887 106.22153571 5.71541153 105.71330932 8.35888672 105.19067383 C21.61402948 102.77699078 35.00166791 103.20480935 48.42138672 103.31567383 C48.01205176 88.10887998 46.6769137 72.92760071 37.42138672 60.31567383 C36.84388672 59.40817383 36.26638672 58.50067383 35.67138672 57.56567383 C30.11912472 52.01341183 22.82482068 48.67363217 15.42138672 46.31567383 C13.80296875 45.79166992 13.80296875 45.79166992 12.15185547 45.25708008 C6.18948446 43.79744103 0.07100884 43.9809011 -6.0300293 44 C-8.11252713 44.00313085 -10.1935589 43.97974887 -12.27587891 43.9543457 C-32.05820791 43.86048788 -49.89098024 49.5249328 -67.31298828 58.64379883 C-70.57861328 60.31567383 -70.57861328 60.31567383 -73.57861328 61.31567383 C-76.47509656 54.62911137 -78.62911031 47.8882739 -80.56298828 40.86645508 C-81.83112515 36.43285348 -83.31411512 32.09053592 -84.84423828 27.74145508 C-85.57861328 25.31567383 -85.57861328 25.31567383 -85.57861328 22.31567383 C-71.36222265 14.13434289 -56.77938804 8.3719299 -40.82861328 4.50317383 C-40.02665527 4.30828369 -39.22469727 4.11339355 -38.3984375 3.91259766 C-25.64595176 1.00451824 -13.03351318 -0.0374606 0 0 Z " fill="#FDFDFD" transform="translate(653.57861328125,561.684326171875)"/>
<path d="M0 0 C21.12 0 42.24 0 64 0 C65.98 6.27 67.96 12.54 70 19 C71.19727322 22.6296781 72.3996939 26.25506203 73.625 29.875 C75.83662085 36.45684632 77.96388673 43.05217454 79.97265625 49.69921875 C81.50058118 54.60833118 83.15136805 59.4751034 84.78930664 64.34838867 C86.59499377 69.73808251 88.28902174 75.15377175 89.9375 80.59375 C91.45569776 85.4609134 93.08117793 90.29097296 94.71875 95.11914062 C96.10561377 99.23073946 97.42366203 103.35668679 98.6875 107.5078125 C100.64736695 113.91836589 102.69329742 120.29959906 104.75 126.6796875 C105.09216553 127.74262024 105.43433105 128.80555298 105.78686523 129.9006958 C107.21643648 134.34123336 108.64634853 138.78164881 110.08203125 143.22021484 C114.02329784 155.41126899 117.90545792 167.56329683 121 180 C121.24266602 180.95229492 121.48533203 181.90458984 121.73535156 182.88574219 C122.3740214 185.4009067 123.00189648 187.91844006 123.625 190.4375 C123.82867188 191.25669922 124.03234375 192.07589844 124.2421875 192.91992188 C124.63881857 194.51534492 125.03500093 196.1108796 125.43066406 197.70654297 C126.28270003 201.13880106 127.14136234 204.56938808 128 208 C130.35335619 202.10980791 131.98751447 196.3071339 133.375 190.125 C135.42338028 181.29040035 137.70741244 172.56257056 140.19433594 163.84277344 C141.16391051 160.42164423 142.11723492 156.99606264 143.0703125 153.5703125 C149.58751601 130.18127314 149.58751601 130.18127314 152.66503906 120.2355957 C152.98182617 119.20909912 153.29861328 118.18260254 153.625 117.125 C153.87093903 116.33253372 154.11687805 115.54006744 154.37026978 114.72358704 C156.48797163 107.83535915 158.39918022 100.90753497 160.2421875 93.94140625 C163.53416184 81.61315262 167.00185876 69.341274 170.55224609 57.08520508 C171.50271734 53.8031167 172.4488703 50.51980534 173.39453125 47.23632812 C176.76481513 35.56068628 180.20300456 23.91026284 183.80480957 12.30366516 C184.07869507 11.41543564 184.35258057 10.52720612 184.63476562 9.61206055 C184.87505493 8.83896042 185.11534424 8.06586029 185.36291504 7.26933289 C186.03425457 4.87798327 186.51288724 2.43556378 187 0 C207.13 0 227.26 0 248 0 C245.75002581 10.12488387 245.75002581 10.12488387 244.45043945 13.83740234 C244.15805893 14.68065063 243.86567841 15.52389893 243.56443787 16.3927002 C243.25055618 17.28146851 242.9366745 18.17023682 242.61328125 19.0859375 C242.27970108 20.04350952 241.94612091 21.00108154 241.60243225 21.9876709 C240.51053207 25.11846065 239.41154764 28.24671297 238.3125 31.375 C237.54265916 33.57812276 236.77329741 35.78141299 236.00439453 37.98486328 C234.43252768 42.48694435 232.8578856 46.98803911 231.28076172 51.48828125 C229.20323161 57.41715954 227.13300473 63.34855364 225.06640625 69.28125 C222.60375949 76.34972677 220.13932441 83.41757316 217.671875 90.484375 C217.36828568 91.3538678 217.06469635 92.2233606 216.75190735 93.11920166 C215.52908883 96.62123908 214.30616853 100.12324096 213.08325195 103.62524414 C211.23947557 108.90530538 209.39611742 114.18551233 207.55322266 119.46588135 C206.93523792 121.23624832 206.31707434 123.00655287 205.69873047 124.77679443 C202.02310327 135.29979833 198.36530678 145.82867173 194.734375 156.3671875 C162.79728573 249.01590563 162.79728573 249.01590563 142 292 C141.52643066 292.99338379 141.05286133 293.98676758 140.56494141 295.01025391 C130.23083352 316.63463836 118.43319555 337.10196981 102.04296875 354.74609375 C99.95327175 356.99370782 99.95327175 356.99370782 98.04296875 359.5234375 C85.88190275 374.2655328 65.14063882 385.97104751 47.6875 392.9375 C46.59453613 393.37968872 46.59453613 393.37968872 45.47949219 393.83081055 C40.30242064 395.80417323 35.523605 396.56923515 30 397 C26.20960215 385.31366544 22.52770228 373.59975794 19.0625 361.8125 C18.60315063 360.26369141 18.60315063 360.26369141 18.13452148 358.68359375 C17.85423096 357.72195313 17.57394043 356.7603125 17.28515625 355.76953125 C17.03644775 354.91979736 16.78773926 354.07006348 16.53149414 353.19458008 C16 351 16 351 16 348 C16.99257813 347.5875 17.98515625 347.175 19.0078125 346.75 C50.68098578 333.38788002 78.2558568 310.52921002 91.69921875 278.06640625 C92.55127186 275.83739626 93.37631207 273.5976507 94.16015625 271.34375 C95 269 95 269 96 268 C96.50841862 261.98837959 95.0465216 257.39994292 92.95703125 251.8046875 C92.48158623 250.49139969 92.48158623 250.49139969 91.99653625 249.15158081 C91.0083608 246.43034847 90.00500496 243.71505498 89 241 C88.41500504 239.39777024 87.83082697 237.79524192 87.24755859 236.19238281 C85.41213762 231.1632442 83.55050087 226.14397364 81.6875 221.125 C80.96432217 219.17281266 80.24126375 217.22058108 79.51831055 215.26831055 C77.47276569 209.74663484 75.4244285 204.22599869 73.37536621 198.70562744 C71.92594806 194.80048302 70.47709397 190.89512965 69.02832031 186.98974609 C57.66511871 156.36027194 46.28466856 125.73719741 34.875 95.125 C34.43932709 93.95580017 34.00365417 92.78660034 33.55477905 91.58197021 C28.44221468 77.86439842 23.3102429 64.15433971 18.15385056 50.45319366 C17.30363575 48.19374795 16.45382167 45.93415196 15.60415649 43.67449951 C15.32664236 42.93649109 15.04912823 42.19848267 14.76320457 41.43811035 C14.20667288 39.95809461 13.65015553 38.47807348 13.09365273 36.99804688 C11.46444419 32.66615135 9.83207303 28.33546386 8.19734955 24.00564671 C7.19107989 21.33849362 6.18745616 18.67035057 5.18451691 16.00194359 C4.49116274 14.15988276 3.79441505 12.3191004 3.09759521 10.47834778 C2.68721008 9.3851976 2.27682495 8.29204742 1.85400391 7.16577148 C1.49400299 6.21121567 1.13400208 5.25665985 0.76309204 4.2731781 C0 2 0 2 0 0 Z " fill="#FDFDFD" transform="translate(800,568)"/>
<path d="M0 0 C0 22.11 0 44.22 0 67 C21.78 67 43.56 67 66 67 C66 81.19 66 95.38 66 110 C44.22 110 22.44 110 0 110 C0.11992347 135.55864978 0.11992347 135.55864978 0.2578125 161.1171875 C0.31808056 171.54978447 0.37643154 181.98236557 0.421875 192.41503906 C0.45499012 200.01533307 0.49492637 207.61555668 0.54279006 215.21577263 C0.56786274 219.23374958 0.58969878 223.251681 0.60334396 227.26971436 C0.61634145 231.06511364 0.63857836 234.86035519 0.66738319 238.65566635 C0.68052921 240.68505529 0.68434591 242.71449826 0.68769836 244.743927 C0.82581356 260.21469801 1.4230034 277.66017063 12 290 C20.06297939 296.42305138 26.44122806 297.19428615 36.5 297.1875 C37.47727051 297.18814453 38.45454102 297.18878906 39.46142578 297.18945312 C46.81485276 297.13594712 53.79032597 296.52355376 61 295 C61.78198952 310.011703 62.14417313 324.96828791 62 340 C48.30556913 345.35477746 34.99903423 346.31246877 20.4375 346.4375 C19.40014206 346.45555191 19.40014206 346.45555191 18.34182739 346.47396851 C-0.70597273 346.75724594 -18.90137875 341.8864487 -33.6875 329.2890625 C-41.07500543 321.97643044 -46.30106025 313.66674589 -50 304 C-50.35707031 303.12472656 -50.71414063 302.24945312 -51.08203125 301.34765625 C-58.72406135 280.94028748 -57.41033623 258.67312128 -57.30418181 237.25960827 C-57.2851979 232.77271608 -57.28364772 228.28581532 -57.28010559 223.79888916 C-57.270848 215.33508216 -57.24632107 206.87139392 -57.21605712 198.40763879 C-57.1823152 188.75804048 -57.16597777 179.10843595 -57.15097082 169.45879316 C-57.11976451 149.63911481 -57.06483295 129.81959885 -57 110 C-69.87 110 -82.74 110 -96 110 C-96 95.81 -96 81.62 -96 67 C-83.13 67 -70.26 67 -57 67 C-57 50.5 -57 34 -57 17 C-49.06066038 14.16452156 -41.29636958 11.40806994 -33.25439453 8.98242188 C-29.88917339 7.96654416 -26.53607239 6.916493 -23.18359375 5.859375 C-20.93489583 5.15625 -18.68619792 4.453125 -16.4375 3.75 C-15.28958984 3.38648438 -14.14167969 3.02296875 -12.95898438 2.6484375 C-11.30672852 2.13410156 -11.30672852 2.13410156 -9.62109375 1.609375 C-8.14274048 1.1448291 -8.14274048 1.1448291 -6.63452148 0.67089844 C-4 0 -4 0 0 0 Z " fill="#FEFEFE" transform="translate(1636,501)"/>
<path d="M0 0 C-0.72731192 4.12925478 -1.90350187 8.01087961 -3.1875 12 C-6.35080978 21.93471417 -9.17369622 31.9652311 -12 42 C-15.87871696 42 -18.59715548 40.42114935 -22 38.75 C-36.24117291 31.96352483 -48.79923589 28.86384567 -64.625 28.6875 C-66.07374512 28.66091309 -66.07374512 28.66091309 -67.55175781 28.63378906 C-78.02058434 28.64450434 -86.92984076 31.16664677 -95 38 C-100.82753574 44.03111778 -104.06372828 51.08566235 -104.3125 59.5 C-103.93298569 68.24400963 -102.03255889 75.42006336 -96 82 C-84.59749933 91.57024805 -70.73053667 97.30475666 -57.3112793 103.42944336 C-42.74415022 110.0873717 -29.25637552 116.5166987 -17 127 C-16.10087891 127.68255859 -16.10087891 127.68255859 -15.18359375 128.37890625 C-1.01762568 139.38957749 7.69289822 157.4908105 10 175 C10.9465414 186.86565056 10.68400046 198.60770943 7 210 C6.64808594 211.15757812 6.29617188 212.31515625 5.93359375 213.5078125 C-0.78475932 234.03980901 -14.67262449 248.34657412 -33.625 258.125 C-52.14594813 267.29160316 -71.86634602 270.60240428 -92.375 270.375 C-93.13824585 270.37001495 -93.9014917 270.36502991 -94.68786621 270.3598938 C-106.32910009 270.2710213 -117.67196841 269.87960467 -129 267 C-130.36705078 266.65340332 -130.36705078 266.65340332 -131.76171875 266.29980469 C-144.37694809 262.98768206 -155.84414129 258.78515893 -167 252 C-166.34164402 245.69733874 -164.58064995 239.9083373 -162.6875 233.875 C-162.37353271 232.85978271 -162.05956543 231.84456543 -161.73608398 230.79858398 C-161.11301449 228.78513305 -160.48782815 226.77233576 -159.86035156 224.76025391 C-158.74993072 221.19770623 -157.65603713 217.63026323 -156.5625 214.0625 C-156.04205941 212.37487883 -155.52141739 210.68731963 -155 209 C-150.43062934 210.40917996 -146.21956734 212.2757823 -141.9375 214.375 C-135.12757696 217.62654701 -128.29898904 220.04328847 -121 222 C-119.94554687 222.28746094 -118.89109375 222.57492187 -117.8046875 222.87109375 C-99.3469213 227.70527061 -78.44842376 228.79281102 -61.25 219.421875 C-52.98213911 214.19704625 -49.46338714 207.40266074 -47 198 C-46.51895106 194.23679424 -46.589722 190.76556517 -47 187 C-47.08378906 186.15695312 -47.16757813 185.31390625 -47.25390625 184.4453125 C-48.56542865 175.58218218 -52.6628948 168.63256228 -59.5 162.875 C-70.45871676 154.78911326 -82.29709456 149.45337592 -94.73510742 144.07373047 C-111.74566545 136.68765151 -126.57074599 127.97143853 -140 115 C-141.16015625 113.89591797 -141.16015625 113.89591797 -142.34375 112.76953125 C-152.97418179 101.90246314 -160.34750445 86.2080522 -160.36669922 70.90844727 C-160.34881348 69.98990967 -160.33092773 69.07137207 -160.3125 68.125 C-160.29977051 67.1568335 -160.28704102 66.18866699 -160.27392578 65.19116211 C-159.82078794 42.90314685 -151.68856491 24.90705814 -135.79003906 9.25073242 C-99.55250176 -24.71203148 -41.68515135 -20.34739569 0 0 Z " fill="#FDFDFD" transform="translate(1502,577)"/>
<path d="M0 0 C19.14 0 38.28 0 58 0 C58 131.67 58 263.34 58 399 C38.86 399 19.72 399 0 399 C0 267.33 0 135.66 0 0 Z " fill="#FEFEFE" transform="translate(1090,443)"/>
<path d="M0 0 C19.14 0 38.28 0 58 0 C58 131.67 58 263.34 58 399 C38.86 399 19.72 399 0 399 C0 267.33 0 135.66 0 0 Z " fill="#FEFEFE" transform="translate(437,443)"/>
<path d="M0 0 C19.14 0 38.28 0 58 0 C58 90.42 58 180.84 58 274 C38.86 274 19.72 274 0 274 C0 183.58 0 93.16 0 0 Z " fill="#FEFEFE" transform="translate(1221,568)"/>
<path d="M0 0 C0.84115356 -0.01530762 1.68230713 -0.03061523 2.5489502 -0.04638672 C37.50049641 -0.56533346 37.50049641 -0.56533346 52.890625 6.30859375 C53.52726074 6.58123047 54.16389648 6.85386719 54.81982422 7.13476562 C69.97389974 13.81296852 81.47711446 26.15635239 87.859375 41.37890625 C91.67697307 52.22435532 92.53022959 62.91078642 91.890625 74.30859375 C91.85340332 75.00388184 91.81618164 75.69916992 91.77783203 76.41552734 C90.57990565 95.49897723 83.76902851 112.57523131 69.75 125.95703125 C50.93631914 141.42948463 27.09804942 145.65422835 3.453125 145.74609375 C2.43972549 145.75535385 2.43972549 145.75535385 1.40585327 145.76480103 C-0.57706745 145.77646013 -2.56008942 145.75951113 -4.54296875 145.7421875 C-5.68822021 145.73243896 -6.83347168 145.72269043 -8.01342773 145.71264648 C-13.79587787 145.14222537 -19.44765823 143.61514377 -25.109375 142.30859375 C-25.109375 96.43859375 -25.109375 50.56859375 -25.109375 3.30859375 C-16.61104268 0.8804988 -8.78654835 0.15624946 0 0 Z " fill="#000000" transform="translate(231.109375,504.69140625)"/>
<path d="M0 0 C0.12804352 7.2731622 0.21486633 14.54602793 0.2746582 21.82006836 C0.29961563 24.2882778 0.3335939 26.75641478 0.37719727 29.22436523 C0.82986889 55.52724957 0.82986889 55.52724957 -5 68 C-5.59917236 69.3152063 -5.59917236 69.3152063 -6.21044922 70.65698242 C-12.68752308 84.08725135 -24.78630119 92.63079167 -38.23828125 98.0546875 C-44.23691743 100.10796891 -49.89743605 100.21453805 -56.1875 100.25 C-57.08275391 100.270625 -57.97800781 100.29125 -58.90039062 100.3125 C-70.44721981 100.37919649 -78.60039545 97.08551353 -86.91015625 89.18359375 C-95.91334429 79.72164454 -98.51172595 66.88731345 -98.25 54.14453125 C-97.15954938 40.42870708 -92.58018307 29.02534443 -82.34375 19.6796875 C-68.29684948 7.84577191 -50.88661962 4.44869925 -33.25 1.75 C-31.57393677 1.486427 -31.57393677 1.486427 -29.86401367 1.2175293 C-19.88836604 -0.1955268 -10.04856599 -0.16913162 0 0 Z " fill="#010101" transform="translate(704,704)"/>
<path d="M0 0 C7.35834883 4.34631376 12.35925146 10.20699144 15.140625 18.33203125 C17.47610535 28.300286 17.03771477 38.95469141 12 48 C6.43741037 55.83106436 0.27799437 60.40084555 -9 63 C-20.8185238 64.00434096 -30.72415677 63.4476622 -40.3125 55.8125 C-46.53914197 49.9506512 -50.52163595 42.00613543 -51.3359375 33.484375 C-51.44976749 22.60222767 -49.69583082 14.42129549 -42.8359375 5.8203125 C-31.58818209 -5.33171733 -13.75627149 -7.81551 0 0 Z " fill="#FCFCFC" transform="translate(1267,463)"/>
</svg>
