<?xml version="1.0" encoding="UTF-8"?>
<svg version="1.1" xmlns="http://www.w3.org/2000/svg" width="2154" height="2154">
<path d="M0 0 C710.82 0 1421.64 0 2154 0 C2154 710.82 2154 1421.64 2154 2154 C1443.18 2154 732.36 2154 0 2154 C0 1443.18 0 732.36 0 0 Z " fill="#000000" transform="translate(0,0)"/>
<path d="M0 0 C8.42737358 0.18320377 17.07287431 1.76839364 23.625 7.3125 C27.60697702 11.86596447 26.98844284 15.50365003 26.625 21.3125 C26.18986283 27.17307246 25.66871874 33.02363761 25.125 38.875 C23.84454939 52.06884157 23.84454939 52.06884157 23.625 65.3125 C24.14707031 64.51328125 24.66914062 63.7140625 25.20703125 62.890625 C41.28672809 38.71732009 41.28672809 38.71732009 51.625 35.3125 C58.43282054 34.56693976 64.15223278 37.51013562 69.625 41.3125 C71.99691723 43.37836339 72.59602603 44.22557808 73.625 47.3125 C73.71044291 48.64778807 73.74274625 49.98693888 73.73852539 51.32495117 C73.73841209 52.5258564 73.73841209 52.5258564 73.73829651 53.75102234 C73.73313522 54.61048965 73.72797394 55.46995697 73.72265625 56.35546875 C73.7212413 57.2390657 73.71982635 58.12266266 73.71836853 59.03303528 C73.71277069 61.85539128 73.70021861 64.67766797 73.6875 67.5 C73.68248472 69.41341031 73.67792186 71.32682187 73.67382812 73.24023438 C73.66280197 77.93102014 73.64553883 82.62174663 73.625 87.3125 C76.82284634 86.72080044 77.47688357 86.4906362 79.66796875 83.85546875 C84.18093234 76.7942015 87.84319002 69.77856617 91.125 62.0625 C95.69611709 51.42176728 101.58589834 42.2006631 112.625 37.3125 C118.88096738 35.01023892 124.81387623 34.96785849 131.4375 35 C133.12685669 35.00302124 133.12685669 35.00302124 134.8503418 35.00610352 C148.79582821 35.16741793 162.95607077 36.46128402 176.625 39.3125 C176.87714234 45.74212963 176.87714234 45.74212963 175.65625 48.50390625 C174.2428001 52.35341563 174.15768217 55.98952424 174 60.0625 C173.96205322 60.88854736 173.92410645 61.71459473 173.88500977 62.56567383 C173.53852695 70.81447901 173.52988259 79.05842254 173.625 87.3125 C178.69125741 83.56405521 181.44326037 79.84909541 184.375 74.3125 C184.76042969 73.61382813 185.14585937 72.91515625 185.54296875 72.1953125 C190.59731273 62.92610036 191.77938618 54.75243831 192.14257812 44.32617188 C192.32048122 40.52307358 192.46922555 38.54616167 194.625 35.3125 C202.74071352 33.82898247 212.6948355 35.62331937 219.90234375 39.5546875 C222.32689749 41.23055491 224.28873488 42.63996977 225.625 45.3125 C225.69694869 48.19620333 225.71791708 51.05489664 225.6875 53.9375 C225.68298828 54.73929688 225.67847656 55.54109375 225.67382812 56.3671875 C225.66203168 58.34899006 225.64409605 60.33075433 225.625 62.3125 C225.98851562 61.47847656 226.35203125 60.64445312 226.7265625 59.78515625 C235.65597345 39.79701327 235.65597345 39.79701327 244.625 35.3125 C248 35 248 35 251.625 35.3125 C252.99695574 36.60605827 254.33682656 37.93548702 255.625 39.3125 C257.7242508 38.98705678 257.7242508 38.98705678 259.625 38.3125 C259.70016846 37.41942139 259.70016846 37.41942139 259.77685547 36.50830078 C260.00860757 33.8171386 260.25412852 31.12740736 260.5 28.4375 C260.57863281 27.50035156 260.65726563 26.56320312 260.73828125 25.59765625 C260.82207031 24.70175781 260.90585938 23.80585937 260.9921875 22.8828125 C261.10216064 21.64168701 261.10216064 21.64168701 261.21435547 20.37548828 C261.625 18.3125 261.625 18.3125 263.625 16.3125 C273.8091282 15.1287039 284.36903149 16.99397864 292.625 23.3125 C294.83760485 26.5169622 294.84114147 29.23455843 294.75 33.0625 C294.73195313 34.04734375 294.71390625 35.0321875 294.6953125 36.046875 C294.66050781 37.16835937 294.66050781 37.16835937 294.625 38.3125 C295.55183594 38.37308594 296.47867187 38.43367188 297.43359375 38.49609375 C299.22990234 38.62177734 299.22990234 38.62177734 301.0625 38.75 C302.25746094 38.83121094 303.45242188 38.91242188 304.68359375 38.99609375 C307.625 39.3125 307.625 39.3125 308.625 40.3125 C308.58719927 41.96119317 308.47029698 43.60844032 308.3125 45.25 C308.23386719 46.14589844 308.15523437 47.04179688 308.07421875 47.96484375 C307.625 50.3125 307.625 50.3125 305.625 52.3125 C302.5859375 52.5078125 302.5859375 52.5078125 299 52.4375 C297.81148437 52.41945313 296.62296875 52.40140625 295.3984375 52.3828125 C294.02558594 52.34800781 294.02558594 52.34800781 292.625 52.3125 C292.33677574 56.58067196 292.05208123 60.84906112 291.77050781 65.11767578 C291.67444798 66.56663199 291.57746152 68.01552711 291.47949219 69.46435547 C291.33799283 71.55941222 291.19994343 73.65467371 291.0625 75.75 C290.97871094 77.00683594 290.89492187 78.26367188 290.80859375 79.55859375 C290.3841541 87.99337266 290.3841541 87.99337266 291.625 96.3125 C296.7852367 97.66399056 299.00975899 96.77396187 303.625 94.3125 C304.615 94.6425 305.605 94.9725 306.625 95.3125 C307.21755431 98.47278968 307.30953889 101.15873156 306.625 104.3125 C301.42928735 111.83053876 293.26606203 114.63901783 284.625 116.3125 C277.98290947 117.13683934 271.6106223 116.45347012 265.625 113.3125 C260.29879414 108.33365539 257.85695903 102.84845505 257.38574219 95.6652832 C257.29345019 91.37973958 257.36272381 87.09778705 257.4375 82.8125 C257.4525714 81.30730503 257.46625547 79.80209549 257.47851562 78.296875 C257.51133313 74.63511059 257.56298011 70.97389979 257.625 67.3125 C256.71105469 68.1271875 255.79710937 68.941875 254.85546875 69.78125 C252.27001448 72.08591446 251.62171477 72.31294545 247.9375 72.8125 C244.625 72.3125 244.625 72.3125 242.6875 71.1875 C241.18015137 68.527473 241.42513747 66.31043795 241.625 63.3125 C233.16694855 68.78535682 228.55548554 80.01042846 225.625 89.3125 C224.08989513 97.23831319 223.44380488 105.28375721 222.96875 113.3359375 C222.79859375 114.31433594 222.79859375 114.31433594 222.625 115.3125 C216.66455082 118.29272459 208.58857445 115.948185 202.50390625 114.29296875 C197.68694506 112.65245687 193.07494477 110.78399677 190.421875 106.26171875 C189.26858781 101.99342546 189.41472585 97.89817852 189.5 93.5 C189.50902344 92.61634766 189.51804687 91.73269531 189.52734375 90.82226562 C189.55080363 88.65222641 189.58667135 86.48232753 189.625 84.3125 C189.2846875 84.91835937 188.944375 85.52421875 188.59375 86.1484375 C182.53427539 96.62359307 172.85030412 112.59175527 160.625 116.3125 C153.53222831 116.3125 146.56555644 112.99824219 141.37109375 108.25390625 C138.88058607 104.05848727 138.95372089 100.29839635 138.875 95.5 C138.84535156 94.61634766 138.81570313 93.73269531 138.78515625 92.82226562 C138.7147961 90.65282782 138.66759393 88.48266052 138.625 86.3125 C138.10292969 87.11171875 137.58085938 87.9109375 137.04296875 88.734375 C121.04137697 112.79026119 121.04137697 112.79026119 110.625 116.3125 C104.78927133 116.90868446 99.44648739 114.40319705 94.625 111.3125 C89.93265631 107.31901601 88.89242445 105.04617214 88.30859375 99.078125 C88.22738281 97.91796875 88.14617187 96.7578125 88.0625 95.5625 C87.97871094 94.39203125 87.89492187 93.2215625 87.80859375 92.015625 C87.74800781 91.12359375 87.68742187 90.2315625 87.625 89.3125 C87.25890625 89.96734375 86.8928125 90.6221875 86.515625 91.296875 C80.63676136 101.20695942 72.02933092 112.70112854 60.625 116.3125 C53.11236078 116.3125 47.31705969 113.66089249 41.6875 108.75 C34.3705713 100.10272062 39.04114206 79.30302436 39.53320312 68.64990234 C39.60303162 66.87187578 39.625 65.09189723 39.625 63.3125 C30.36498687 70.03117162 25.77054727 81.74500643 23.0546875 92.58984375 C22.34029225 97.11651186 22.22811675 101.67656985 22.01953125 106.25 C21.85536328 109.47674981 21.6521544 112.23103681 20.625 115.3125 C13.95933916 118.64533042 4.26298521 115.40957493 -2.375 113.3125 C-9.62050898 109.82148204 -9.62050898 109.82148204 -11.375 106.3125 C-11.63011736 102.49809751 -11.56212877 98.66952313 -11.55859375 94.84765625 C-11.55758163 93.65406998 -11.55656952 92.4604837 -11.55552673 91.23072815 C-11.45942453 76.4521282 -10.52292439 61.72686292 -9.57904053 46.98278809 C-9.38802378 43.96951739 -9.20476281 40.95579597 -9.0217371 37.94203091 C-8.7998649 34.29320998 -8.57408532 30.64463434 -8.34765625 26.99609375 C-8.30602922 26.32176237 -8.2644022 25.64743099 -8.22151375 24.95266533 C-7.95952421 20.73772996 -7.67718416 16.52473924 -7.375 12.3125 C-7.30481659 11.3020462 -7.23463318 10.29159241 -7.162323 9.2505188 C-7.05188156 7.89880081 -7.05188156 7.89880081 -6.93920898 6.51977539 C-6.87837631 5.74735001 -6.81754364 4.97492462 -6.75486755 4.17909241 C-5.93904321 0.17029642 -3.57272224 0.01734331 0 0 Z " fill="#FEFEFE" transform="translate(1343.375,1000.6875)"/>
<path d="M0 0 C8.11571352 -1.48351753 18.0698355 0.31081937 25.27734375 4.2421875 C27.70189749 5.91805491 29.66373488 7.32746977 31 10 C31.5135607 19.60188577 30.69151936 29.23913386 30 38.8125 C29.90323541 40.19853912 29.80687919 41.5846068 29.7109375 42.97070312 C29.47794791 46.31410367 29.24090218 49.65716188 29 53 C40.00509608 44.27551493 45.24300184 30.79243557 47 17 C47.24329025 13.49749713 47.39016774 9.99086874 47.51757812 6.48242188 C47.60808323 4.65012035 47.79602472 2.82316048 48 1 C53.91941474 -1.95970737 61.77489846 -0.02961603 67.8125 1.6875 C72.92576143 3.43853364 76.59588234 4.74485293 80 9 C81.40981212 14.96534813 81.00016497 21.12883141 80.5625 27.1875 C80.06037607 35.143689 79.8829208 43.02560585 80 51 C80.66 51 81.32 51 82 51 C90.05079442 42.11511427 94.21675537 31.31968289 98 20.125 C100.91363664 12.03817177 104.93251009 7.02449745 112.55859375 3.0078125 C118.40104951 0.59604676 123.88989812 -0.38939616 130.1875 -0.375 C130.92782471 -0.37338867 131.66814941 -0.37177734 132.4309082 -0.37011719 C141.26941774 -0.1750446 150.21001128 2.10343085 157 8 C159.7808541 12.3526412 158.82483573 16.1334692 158 21 C153.41717598 22.42196035 150.79000525 21.45073221 146.4375 19.625 C141.21063139 17.46174108 137.04512303 15.85603638 131.375 15.875 C130.59898437 15.87242188 129.82296875 15.86984375 129.0234375 15.8671875 C126.93040752 15.87326631 126.93040752 15.87326631 125 17 C124.77051464 19.41164585 124.77051464 19.41164585 126 22 C128.89570791 23.64588869 132.01968001 24.56596151 135.1875 25.5625 C144.43481568 28.579603 152.3837879 31.89653957 157.6015625 40.703125 C159.17467247 44.41179767 159.49825833 47.36307662 159.6875 51.375 C159.75324219 52.62023438 159.81898438 53.86546875 159.88671875 55.1484375 C159.94279297 56.55996094 159.94279297 56.55996094 160 58 C161.42345209 55.69145269 162.83873273 53.3784825 164.25 51.0625 C164.64574219 50.42248047 165.04148437 49.78246094 165.44921875 49.12304688 C166.67494842 47.10360701 167.84501996 45.06065252 169 43 C169.37294189 42.36819824 169.74588379 41.73639648 170.13012695 41.08544922 C174.04983334 33.59950434 174.11058887 25.26462858 174.6875 17 C174.8598082 14.71649584 175.03668462 12.43344327 175.2179718 10.15063477 C175.32874733 8.73883028 175.43358771 7.32654501 175.53190613 5.91381836 C175.88997702 1.11002298 175.88997702 1.11002298 177 0 C186.77275148 -1.02782386 197.55215298 0.4644381 205.75 6.25 C209.58360535 10.93551765 209.15703544 16.34694936 208.66015625 22.13671875 C208.46794324 23.98772007 208.26850032 25.83798234 208.0625 27.6875 C207.22936752 35.84292614 206.72138994 43.79648159 207 52 C216.6612552 44.9372893 221.20994622 32.93994007 225.59082031 22.15625 C229.33905643 13.28460176 235.10824623 6.09655799 244 2 C255.17727937 -1.80588366 267.9479889 -0.9955861 279 3 C279.99 3.66 280.98 4.32 282 5 C282.36328125 7.4609375 282.36328125 7.4609375 282.3125 10.375 C282.30863281 11.33148437 282.30476563 12.28796875 282.30078125 13.2734375 C282.00100077 15.99092807 281.38578659 17.67011179 280 20 C276.5891674 19.5939485 274.11642813 19.06192985 271.0625 17.4375 C267.3891474 15.71327327 265.01243564 15.47005567 261 16 C254.10338796 23.25793317 254.52302753 35.51619355 254.625 44.875 C254.60759766 46.50695313 254.60759766 46.50695313 254.58984375 48.171875 C254.59323697 56.03800217 254.59323697 56.03800217 258 63 C262.23748692 64.41249564 264.42769275 64.63322405 268.5703125 62.96484375 C270.27093919 62.09422441 271.95162276 61.18306793 273.60546875 60.2265625 C276.09125212 58.95325748 278.25142365 58.41985358 281 58 C281.69390251 62.16341508 281.93059833 65.56596322 279.5703125 69.203125 C273.51342002 75.57624079 265.48059902 80.4538231 256.58984375 81.203125 C247.3683731 81.3660965 239.37196658 80.38048645 232.0625 74.375 C225.30655347 67.76382375 223.44519385 60.10852439 222 51 C221.55011719 51.72703125 221.10023438 52.4540625 220.63671875 53.203125 C214.29408991 63.11745465 205.35257689 76.99307232 193.875 81.125 C186.68365522 80.89302114 180.52644262 77.88244744 174.8125 73.625 C171.28473175 68.71225607 172.08177264 60.84302683 172 55 C171.52691406 55.6290625 171.05382812 56.258125 170.56640625 56.90625 C161.35533193 68.82857621 150.77280624 78.02811409 135.4296875 80.75390625 C122.6081098 82.0525548 108.58152693 81.24403998 98 73 C97.0261037 70.07831111 96.80394177 67.98970526 96.75 64.9375 C96.72421875 64.05964844 96.6984375 63.18179687 96.671875 62.27734375 C96.78015625 61.52582031 96.8884375 60.77429687 97 60 C97.99 59.34 98.98 58.68 100 58 C102.60842078 58.82859238 104.99662012 59.73680173 107.5 60.8125 C113.85417671 63.37026448 120.02448579 65.58535784 127 65 C129.23863422 64.08000477 129.23863422 64.08000477 131 63 C131.08985493 61.06180577 131.08985493 61.06180577 130 59 C127.45396448 57.82744418 125.08747461 56.91796874 122.4375 56.0625 C114.6635686 53.33948125 108.18784137 50.80476803 102.7890625 44.33984375 C102.2626416 43.71327881 101.7362207 43.08671387 101.19384766 42.44116211 C100.79987793 41.96557861 100.4059082 41.48999512 100 41 C99.70867187 41.52319824 99.41734375 42.04639648 99.1171875 42.58544922 C88.1350582 62.20564484 88.1350582 62.20564484 81 70 C80.32066406 70.74765625 79.64132812 71.4953125 78.94140625 72.265625 C75.3444132 76.04620749 72.07535639 79.38020541 67 81 C60.32531268 81 53.34571743 77.84838106 48.265625 73.5234375 C46.04372462 70.84892779 45.84928896 68.10710624 45.68359375 64.76953125 C45.64169922 63.96708984 45.59980469 63.16464844 45.55664062 62.33789062 C45.51732422 61.50451172 45.47800781 60.67113281 45.4375 59.8125 C45.37272461 58.5450293 45.37272461 58.5450293 45.30664062 57.25195312 C45.20068482 55.16815567 45.0998498 53.08409897 45 51 C44.48953125 51.78761719 43.9790625 52.57523438 43.453125 53.38671875 C39.28388906 59.6331804 34.93434925 65.50410474 29.875 71.0625 C29.39708008 71.59770264 28.91916016 72.13290527 28.42675781 72.68432617 C24.9768958 76.3837102 21.56937636 78.79719082 17 81 C9.49719556 81 3.73575537 78.32830244 -1.9375 73.5 C-9.79051278 63.98119663 -4.57910837 40.42394751 -3.828125 28.80175781 C-3.62224684 25.58194223 -3.43193264 22.36142715 -3.2421875 19.140625 C-3.11291279 17.08587855 -2.98273881 15.03118843 -2.8515625 12.9765625 C-2.79626373 12.01730865 -2.74096497 11.05805481 -2.68399048 10.06973267 C-2.62407928 9.18385468 -2.56416809 8.29797668 -2.50244141 7.38525391 C-2.45358795 6.60824127 -2.4047345 5.83122864 -2.35440063 5.03067017 C-2 3 -2 3 0 0 Z " fill="#FFFFFF" transform="translate(662,1036)"/>
<path d="M0 0 C0.72960937 0.20882812 1.45921875 0.41765625 2.2109375 0.6328125 C4.0625 1.375 4.0625 1.375 7 4 C11.08531623 13.86374753 13.06535747 24.92443849 15.57421875 35.27807617 C16.25666742 38.08997178 16.94831041 40.89950351 17.640625 43.70898438 C18.07867383 45.50507457 18.51619355 47.30129391 18.953125 49.09765625 C19.26240936 50.3507534 19.26240936 50.3507534 19.57794189 51.62916565 C19.76523865 52.40775436 19.9525354 53.18634308 20.14550781 53.98852539 C20.31109192 54.66879288 20.47667603 55.34906036 20.64727783 56.04994202 C21 58 21 58 21 62 C21.66 62 22.32 62 23 62 C23.25056152 61.18426514 23.50112305 60.36853027 23.75927734 59.52807617 C25.21113657 55.39961932 26.99193036 51.50820326 28.8515625 47.55078125 C29.41815079 46.33263985 29.41815079 46.33263985 29.9961853 45.08988953 C31.59788746 41.64642953 33.20689233 38.20640014 34.81591797 34.76635742 C35.99736915 32.23750442 37.17553286 29.70715987 38.3515625 27.17578125 C38.73878479 26.34337921 39.12600708 25.51097717 39.52496338 24.65335083 C42.69473836 17.78440021 45.64051618 10.83158055 48.45669556 3.81037903 C50.78681297 -1.89340648 50.78681297 -1.89340648 53 -3 C65.65305189 -3.7359717 78.20684477 -3.43528471 89 4 C90.59032089 7.18064177 90.31788626 10.64936716 90.45239258 14.14990234 C90.48822449 14.99232986 90.5240564 15.83475739 90.56097412 16.70271301 C90.67782751 19.49692342 90.78704463 22.29135179 90.89453125 25.0859375 C90.95029107 26.51544676 90.95029107 26.51544676 91.00717735 27.97383499 C91.20290605 33.01620605 91.39220256 38.05877614 91.5769043 43.1015625 C91.76936582 48.31682263 91.98549389 53.53082407 92.20688343 58.74492455 C92.37236522 62.74899168 92.51959946 66.75358178 92.66190147 70.75853348 C92.73351376 72.68135296 92.81215253 74.60392391 92.89789772 76.52616501 C93.01618681 79.21424271 93.10852172 81.90203297 93.19458008 84.59130859 C93.23544235 85.38729965 93.27630463 86.18329071 93.31840515 87.00340271 C93.40829768 90.61233773 93.32763662 92.56517085 91.1204071 95.49453735 C86.53987735 98.74665646 80.93393799 97.31514347 75.66796875 96.45703125 C69.69217245 95.2208951 64.60842451 94.11021646 60 90 C57.91848701 86.72807464 57.73122106 84.06028113 57.68115234 80.22167969 C57.66128265 79.0607782 57.64141296 77.89987671 57.62094116 76.70379639 C57.60938995 75.45576233 57.59783875 74.20772827 57.5859375 72.921875 C57.56657135 71.64016418 57.5472052 70.35845337 57.5272522 69.03790283 C57.47599373 65.63825635 57.43633471 62.23857035 57.39910889 58.83874512 C57.35902959 55.36635613 57.30795522 51.89413067 57.2578125 48.421875 C57.16112787 41.61470291 57.07669935 34.8074258 57 28 C44.09079481 55.91544934 44.09079481 55.91544934 32.55102539 84.41040039 C28.51797599 95.241012 28.51797599 95.241012 25 97 C16.13159042 97.82644677 6.186488 96.84344319 -1.5625 92.125 C-7.1429784 87.25996755 -8.10660603 81.2420733 -9.62890625 74.29296875 C-9.86407455 73.25360672 -10.09924286 72.21424469 -10.34153748 71.14338684 C-11.09018987 67.82656674 -11.82663904 64.50717895 -12.5625 61.1875 C-13.30466954 57.8791931 -14.04929573 54.57144605 -14.79417419 51.26374817 C-15.25603627 49.20848029 -15.71583217 47.15274665 -16.17323303 45.09648132 C-17.37350542 39.70963311 -18.63478708 34.34751174 -20 29 C-21.86815271 38.64715385 -23.35174457 48.29470655 -24.5 58.0546875 C-24.6235083 59.09788147 -24.7470166 60.14107544 -24.87426758 61.21588135 C-25.38323635 65.54286005 -25.88668309 69.87034524 -26.375 74.19970703 C-26.73852812 77.40282529 -27.11803286 80.60372333 -27.5 83.8046875 C-27.60634766 84.78581512 -27.71269531 85.76694275 -27.82226562 86.77780151 C-27.93248047 87.68370026 -28.04269531 88.589599 -28.15625 89.52294922 C-28.24712891 90.31772675 -28.33800781 91.11250427 -28.43164062 91.93136597 C-29.12503892 94.45509898 -29.880594 95.47418847 -32 97 C-37.71595362 96.9078072 -40.8405434 96.1594566 -45 92 C-49.41234486 83.17531028 -44.99970686 67.97651599 -43.41015625 58.5859375 C-43.14258338 56.95658279 -42.87595403 55.32707289 -42.61021423 53.69741821 C-41.91527316 49.4526739 -41.20680032 45.21029823 -40.49554443 40.96826172 C-39.91572419 37.49604152 -39.34560324 34.02226105 -38.77594852 30.54836082 C-37.59901421 23.37222683 -36.41603758 16.19705875 -35.21508789 9.02490234 C-35.00412979 7.76140961 -34.79317169 6.49791687 -34.57582092 5.19613647 C-33.59780266 -0.23242596 -33.59780266 -0.23242596 -33 -2 C-24.37142683 -6.31428658 -8.58109195 -2.79441899 0 0 Z " fill="#FFFFFF" transform="translate(554,1020)"/>
<path d="M0 0 C9.49062578 0.19927823 17.86394109 2.01958228 25.125 8.3125 C26.32529908 10.71309817 26.23959743 12.20610649 26.22265625 14.8828125 C26.21943359 15.77871094 26.21621094 16.67460938 26.21289062 17.59765625 C26.20032227 19.00337891 26.20032227 19.00337891 26.1875 20.4375 C26.18298828 21.38238281 26.17847656 22.32726563 26.17382812 23.30078125 C26.16202357 25.63808387 26.14555759 27.97526061 26.125 30.3125 C26.49109375 29.66925781 26.8571875 29.02601562 27.234375 28.36328125 C33.05172339 18.65384977 42.40142694 4.96447772 53.125 0.3125 C59.88146409 -0.63859275 66.62138889 2.62686874 72.125 6.3125 C78.13139178 12.98475874 76.44640248 22.90461114 76.125 31.3125 C75.91795757 34.96494081 75.63499397 38.60604637 75.3125 42.25 C75.24248779 43.10070068 75.17247559 43.95140137 75.1003418 44.82788086 C73.84393905 57.71634333 69.80573852 66.64457845 59.9375 75.1875 C50.29914415 82.18098716 38.54496022 81.9629249 27.125 81.3125 C25.45467806 80.99799484 23.78704096 80.66818068 22.125 80.3125 C22.08741577 81.37778931 22.08741577 81.37778931 22.04907227 82.46459961 C21.93201528 85.72653464 21.80979254 88.98825722 21.6875 92.25 C21.64818359 93.36697266 21.60886719 94.48394531 21.56835938 95.63476562 C20.88528963 113.55221037 20.88528963 113.55221037 19.125 115.3125 C8.3696666 116.09035443 -2.32771327 115.57769372 -10.875 108.3125 C-13.03998061 104.24061594 -12.95225063 101.22005636 -12.5 96.6875 C-11.90895295 89.76477649 -11.81542493 82.9561273 -12.00048828 76.01123047 C-12.01192871 75.25600098 -12.02336914 74.50077148 -12.03515625 73.72265625 C-12.05199463 73.06402588 -12.06883301 72.40539551 -12.08618164 71.72680664 C-11.875 69.3125 -11.875 69.3125 -10.91381836 65.88793945 C-9.35691692 59.92011241 -9.33571068 53.83006936 -9.09375 47.6953125 C-9.00360227 45.71943117 -8.91344413 43.74355024 -8.82265472 41.76769829 C-8.63476329 37.62342339 -8.46091908 33.47853701 -8.28643799 29.3336792 C-8.14160921 25.90054938 -7.99331787 22.46766612 -7.83508301 19.03512573 C-7.71738876 16.4669207 -7.6080315 13.89831778 -7.50769043 11.32937622 C-7.45423462 10.17412445 -7.40077881 9.01887268 -7.34570312 7.82861328 C-7.30288208 6.80905548 -7.26006104 5.78949768 -7.21594238 4.73904419 C-6.56354514 0.09582343 -4.1265054 0.01794133 0 0 Z " fill="#FFFFFF" transform="translate(1111.875,1035.6875)"/>
<path d="M0 0 C6.03431515 4.80802575 8.3403478 11.95352305 9.3125 19.3828125 C10.94766314 36.05743905 9.04271865 51.45107438 -0.05859375 65.671875 C-5.13302184 71.44186333 -13.591131 74.69895665 -21.05859375 75.546875 C-33.37239525 76.20218869 -47.95264636 76.62732334 -58.05859375 68.546875 C-65.0957631 61.7578678 -66.17382506 52.30786283 -66.41210938 42.98583984 C-66.52786805 28.16083664 -65.20761314 14.14441017 -54.80859375 2.734375 C-41.90411182 -9.40936236 -14.51775964 -8.83012214 0 0 Z " fill="#FFFFFF" transform="translate(1084.05859375,1041.453125)"/>
<path d="M0 0 C2.31426642 4.62853285 1.32755096 10.81262778 0 15.625 C-0.33 16.40875 -0.66 17.1925 -1 18 C-6.53095191 19.79382224 -10.2550789 17.99886191 -15.41015625 15.9921875 C-22.94659201 13.10492553 -32.70782079 12.63155509 -40.4375 15.125 C-45.75383202 17.49639291 -48.61188703 21.65871391 -50.75 26.9375 C-54.60757056 38.55380004 -54.45731525 52.57707043 -50 64 C-47.48574578 68.66340221 -44.47921845 71.15511967 -39.5 72.9375 C-29.16321489 75.4288509 -19.15394803 74.17534642 -8.9609375 71.65625 C-6 71 -6 71 -2 71 C-0.30273995 76.72663313 -1.12092344 81.93608112 -3.4375 87.375 C-9.41827279 93.5016453 -19.59779564 93.97730309 -27.78515625 94.16796875 C-45.42229565 94.32113251 -63.82874893 94.01655792 -78 82 C-89.63173354 69.50288585 -88.62327602 54.38656381 -88.18359375 38.28759766 C-87.4425206 25.01726377 -83.02350323 12.95935804 -73.2109375 3.78515625 C-55.64698871 -10.39633597 -19.31136388 -10.85566554 0 0 Z " fill="#FFFFFF" transform="translate(1325,1023)"/>
<path d="M0 0 C9.89189376 -0.02312428 19.78378114 -0.04091552 29.67569637 -0.05181217 C34.2684264 -0.05704082 38.861138 -0.06413812 43.45385742 -0.07543945 C47.88233688 -0.086269 52.31079856 -0.09227698 56.73929024 -0.09487724 C58.43265628 -0.09673137 60.12602129 -0.10035175 61.81937981 -0.10573006 C64.18291232 -0.1129414 66.54637045 -0.1139909 68.90991211 -0.11352539 C69.61697296 -0.11712067 70.32403381 -0.12071594 71.05252075 -0.12442017 C75.88594784 -0.11405216 75.88594784 -0.11405216 77 1 C77.10044341 3.44904669 77.13874416 5.86374897 77.125 8.3125 C77.12886719 8.98990234 77.13273437 9.66730469 77.13671875 10.36523438 C77.13016123 13.7194055 77.03843151 16.79404876 76 20 C68.5947673 20.12891121 61.36375335 19.77235934 54 19 C54.00638992 19.68851044 54.01277985 20.37702087 54.0193634 21.08639526 C54.06227527 29.50920827 53.80157763 37.90585394 53.44921875 46.3203125 C53.40518889 47.37573557 53.40518889 47.37573557 53.36026955 48.45248032 C53.20472537 52.15728097 53.04524003 55.86189071 52.88305664 59.56640625 C52.75006043 62.62310243 52.62551876 65.67997278 52.50805664 68.73730469 C52.3652246 72.45405093 52.20836016 76.16994916 52.04117775 79.88567734 C51.98005926 81.29610704 51.92389466 82.70676045 51.87277794 84.11758804 C51.80071097 86.0777972 51.70883116 88.03724801 51.6159668 89.99658203 C51.56933395 91.11066437 51.52270111 92.2247467 51.47465515 93.37258911 C51.23970085 94.6731575 51.23970085 94.6731575 51 96 C45.80174659 99.46550228 39.81234074 98.47333008 33.8203125 97.46484375 C27.69328458 96.06678127 22.53489484 94.53489484 18 90 C17.20386124 75.01940844 18.62034534 59.88474154 19.5 44.9375 C19.6449735 42.41343682 19.78950802 39.88934839 19.93359375 37.36523438 C20.284007 31.24318951 20.63981941 25.12147758 21 19 C20.19973389 19.0707373 19.39946777 19.14147461 18.57495117 19.21435547 C16.98130737 19.35188232 16.98130737 19.35188232 15.35546875 19.4921875 C14.30770264 19.5835498 13.25993652 19.67491211 12.18041992 19.76904297 C7.80366136 20.08687621 3.38296996 20.31241295 -1 20 C-2.84014432 18.15985568 -2.17355864 15.2801214 -2.1875 12.8125 C-2.20167969 11.68457031 -2.21585938 10.55664062 -2.23046875 9.39453125 C-1.99523245 5.92977971 -1.15128407 3.25650551 0 0 Z " fill="#FFFFFF" transform="translate(947,1019)"/>
<path d="M0 0 C2.11621186 1.68996066 3.68137432 3.25727989 4.8984375 5.69140625 C5.13032156 12.99575408 5.13032156 12.99575408 3.8984375 16.69140625 C-1.47014102 16.22457334 -5.82048192 14.748814 -10.76953125 12.62890625 C-14.69412001 11.05118212 -17.9947297 10.55377391 -22.2265625 10.56640625 C-23.09539062 10.56382813 -23.96421875 10.56125 -24.859375 10.55859375 C-27.13875699 10.54602691 -27.13875699 10.54602691 -29.1015625 11.69140625 C-29.23119612 14.12295473 -29.23119612 14.12295473 -28.1015625 16.69140625 C-25.39637183 17.93268314 -22.99510506 18.80863058 -20.1640625 19.62890625 C-10.61436802 22.69307005 -1.05837404 26.00240567 3.79296875 35.4296875 C6.9252765 42.56677228 6.91207937 49.56133084 4.3359375 56.87890625 C0.38470441 65.66248364 -6.31503777 70.22553517 -15.1015625 73.69140625 C-27.14344947 77.69841197 -39.19266747 75.94728043 -50.6015625 70.81640625 C-53.96128502 68.99196677 -55.73182029 67.37258845 -57.1015625 63.69140625 C-57.48967252 59.26695201 -57.21719441 56.54337351 -55.1015625 52.69140625 C-53.76754473 53.12681483 -52.43439476 53.56488211 -51.1015625 54.00390625 C-50.27398438 54.27589844 -49.44640625 54.54789063 -48.59375 54.828125 C-46.42487537 55.57941229 -44.34031227 56.42617554 -42.2265625 57.31640625 C-35.7692049 59.77511956 -28.80767205 60.28637284 -22.1015625 58.69140625 C-22.1015625 57.04140625 -22.1015625 55.39140625 -22.1015625 53.69140625 C-22.97554687 53.45357422 -22.97554687 53.45357422 -23.8671875 53.2109375 C-35.09090455 50.01676645 -46.48142866 46.6905172 -53.4765625 36.734375 C-57.31542345 29.5498401 -57.45602565 20.7398598 -55.37109375 12.96875 C-52.1860116 5.18154916 -46.44288396 0.47958342 -39.1015625 -3.30859375 C-27.2371807 -7.75773693 -10.79640258 -6.72266704 0 0 Z " fill="#FFFFFF" transform="translate(1713.1015625,1041.30859375)"/>
<path d="M0 0 C8.8054423 0.15875196 17.74326675 1.48949494 24.625 7.3125 C29.00130939 12.17768027 27.95141698 17.08177598 27.625 23.3125 C27.21333819 30.0695081 26.67404387 36.8155247 26.125 43.5625 C25.98003813 45.38668458 25.83550362 47.21090318 25.69140625 49.03515625 C25.34085976 53.46134477 24.98454523 57.88703375 24.625 62.3125 C25.14449219 61.58659668 25.66398437 60.86069336 26.19921875 60.11279297 C43.06966325 36.69764507 43.06966325 36.69764507 54.375 34.625 C60.73450954 35.02958112 67.6113852 38.77160909 72.41796875 42.82421875 C74.57269055 45.48101164 74.748863 48.04792905 74.73852539 51.32495117 C74.73841209 52.5258564 74.73841209 52.5258564 74.73829651 53.75102234 C74.73313522 54.61048965 74.72797394 55.46995697 74.72265625 56.35546875 C74.7212413 57.2390657 74.71982635 58.12266266 74.71836853 59.03303528 C74.71277069 61.85539128 74.70021861 64.67766797 74.6875 67.5 C74.68248472 69.41341031 74.67792186 71.32682187 74.67382812 73.24023438 C74.66280197 77.93102014 74.64553883 82.62174663 74.625 87.3125 C78.68305188 83.40969988 78.68305188 83.40969988 81.87109375 78.81640625 C82.23009766 78.18234863 82.58910156 77.54829102 82.95898438 76.89501953 C83.32314453 76.22841309 83.68730469 75.56180664 84.0625 74.875 C84.45373047 74.17487793 84.84496094 73.47475586 85.24804688 72.75341797 C87.7187766 68.24443798 89.74439991 63.72019605 91.625 58.9375 C95.49220507 49.56860815 102.19302228 41.4890215 111.625 37.3125 C118.15439452 34.85855757 124.51830127 34.96914674 131.4375 35 C133.26776733 35.00302124 133.26776733 35.00302124 135.13500977 35.00610352 C149.33784811 35.1587043 163.70079618 36.41390298 177.625 39.3125 C177.67972088 40.70788254 177.71811538 42.10390897 177.75 43.5 C177.77320313 44.27730469 177.79640625 45.05460937 177.8203125 45.85546875 C177.625 48.3125 177.625 48.3125 176.65625 50.5546875 C175.20681049 54.43084013 175.15679768 58.14091814 175 62.25 C174.96205322 63.08378174 174.92410645 63.91756348 174.88500977 64.77661133 C174.58201692 71.95706086 174.51948996 79.12609421 174.625 86.3125 C179.12900926 81.80849074 182.03255368 77.01816866 184.875 71.375 C185.21595703 70.70726562 185.55691406 70.03953125 185.90820312 69.3515625 C189.9759097 61.05441152 190.92417973 53.36923437 191.19140625 44.22851562 C191.34717156 40.43935523 191.47426504 38.53860244 193.625 35.3125 C203.21943358 33.85185489 214.70548248 35.29420179 222.8125 40.875 C226.52345945 44.09116486 226.76312064 45.70870139 227.1875 50.4375 C227.27128906 51.34757812 227.35507813 52.25765625 227.44140625 53.1953125 C227.50199219 53.89398437 227.56257813 54.59265625 227.625 55.3125 C228.04458984 54.36890625 228.04458984 54.36890625 228.47265625 53.40625 C231.79896231 46.30442612 235.90155604 38.29986983 243.625 35.3125 C245.87890625 35.01171875 245.87890625 35.01171875 248.1875 35 C248.95191406 34.98324219 249.71632813 34.96648437 250.50390625 34.94921875 C253.13070103 35.39911178 253.82754616 36.42542242 255.625 38.3125 C256.615 38.3125 257.605 38.3125 258.625 38.3125 C258.70016846 37.41942139 258.70016846 37.41942139 258.77685547 36.50830078 C259.00860757 33.8171386 259.25412852 31.12740736 259.5 28.4375 C259.57863281 27.50035156 259.65726563 26.56320312 259.73828125 25.59765625 C259.82207031 24.70175781 259.90585938 23.80585937 259.9921875 22.8828125 C260.10216064 21.64168701 260.10216064 21.64168701 260.21435547 20.37548828 C260.625 18.3125 260.625 18.3125 262.625 16.3125 C273.573014 15.24440107 284.67296672 16.461261 293.625 23.3125 C295.95495567 26.62848706 295.83633056 29.59129405 295.75 33.5625 C295.73195313 34.64015625 295.71390625 35.7178125 295.6953125 36.828125 C295.66050781 38.05789063 295.66050781 38.05789063 295.625 39.3125 C297.01525391 39.29509766 297.01525391 39.29509766 298.43359375 39.27734375 C299.63113281 39.26832031 300.82867188 39.25929688 302.0625 39.25 C303.25746094 39.23839844 304.45242188 39.22679687 305.68359375 39.21484375 C308.625 39.3125 308.625 39.3125 309.625 40.3125 C309.87011158 45.21473152 309.91901433 48.85941335 307.625 53.3125 C306.625 54.3125 306.625 54.3125 303.68359375 54.41015625 C302.48863281 54.39855469 301.29367187 54.38695312 300.0625 54.375 C298.26619141 54.36146484 298.26619141 54.36146484 296.43359375 54.34765625 C295.50675781 54.33605469 294.57992188 54.32445312 293.625 54.3125 C293.31367965 59.48986797 293.010778 64.66763519 292.71557617 69.84594727 C292.61403396 71.60649803 292.51021578 73.3669191 292.40405273 75.12719727 C292.2516194 77.66131193 292.10744924 80.19578436 291.96484375 82.73046875 C291.91593491 83.51399216 291.86702606 84.29751556 291.81663513 85.1047821 C291.60472324 89.01577597 291.6166295 92.51375343 292.625 96.3125 C294.32612992 97.11719849 294.32612992 97.11719849 296.625 97.3125 C298.0790625 96.57 298.0790625 96.57 299.5625 95.8125 C303.03528008 94.11154649 304.02187007 94.38580668 307.625 95.3125 C308.34492696 100.14756503 308.83644772 104.45555868 306.078125 108.68359375 C298.73746238 115.76974434 289.41137032 118.43037037 279.375 118.75 C272.42444715 118.46536706 266.91744079 117.45543378 261.75 112.625 C256.13419519 103.87095133 256.24948861 95.88234292 256.4375 85.8125 C256.45257387 84.40366014 256.4662575 82.99480468 256.47851562 81.5859375 C256.51370276 78.16105604 256.56293921 74.73698237 256.625 71.3125 C256.01148682 71.79928223 255.39797363 72.28606445 254.76586914 72.78759766 C252.29193709 74.54973468 251.0597678 74.71792911 248.0625 74.6875 C246.91587891 74.69910156 246.91587891 74.69910156 245.74609375 74.7109375 C243.08019518 74.21016097 242.23364203 73.47365434 240.625 71.3125 C239.9375 69.125 239.9375 69.125 239.625 67.3125 C229.92062841 78.67371553 225.70887024 91.58171805 224.625 106.3125 C224.46132979 108.43773289 224.29497901 110.56276239 224.125 112.6875 C224.0734375 113.56148437 224.021875 114.43546875 223.96875 115.3359375 C223.79859375 116.31433594 223.79859375 116.31433594 223.625 117.3125 C217.20058791 120.52470605 207.99420839 118.1101481 201.43359375 116.29296875 C196.60493713 114.6073042 191.97641049 112.75644688 189.421875 108.13671875 C188.41285947 104.56064899 188.40847406 101.17863888 188.5 97.5 C188.50902344 96.80712891 188.51804687 96.11425781 188.52734375 95.40039062 C188.55073843 93.70427605 188.58660359 92.00834129 188.625 90.3125 C188.03074219 91.19550781 187.43648437 92.07851562 186.82421875 92.98828125 C172.50793882 113.86959811 172.50793882 113.86959811 161.625 118.3125 C154.8732491 119.07865613 148.09570944 116.05412511 142.625 112.3125 C138.93442803 108.7759693 138.14225858 106.09749411 137.91796875 101.18554688 C137.90378906 100.46431641 137.88960937 99.74308594 137.875 99 C137.84535156 98.25943359 137.81570313 97.51886719 137.78515625 96.75585938 C137.71494155 94.94197954 137.66764952 93.12723722 137.625 91.3125 C137.16351562 91.97894531 136.70203125 92.64539062 136.2265625 93.33203125 C120.63797322 115.35938567 120.63797322 115.35938567 111.625 118.3125 C103.47697876 119.0045595 97.30078108 115.78965681 90.75 111.375 C87.3837435 106.52363034 87.19217774 101.09432684 86.625 95.3125 C85.91537109 96.23869141 85.91537109 96.23869141 85.19140625 97.18359375 C70.4040134 116.12183371 70.4040134 116.12183371 61.625 118.3125 C53.39849985 118.81267121 46.80732337 116.08856933 40.6875 110.75 C33.11438 101.79994909 38.04684669 79.53267205 38.625 68.3125 C37.965 68.3125 37.305 68.3125 36.625 68.3125 C27.17909886 80.18530773 23.69285376 93.48678053 23.01953125 108.25 C22.85536328 111.47674981 22.6521544 114.23103681 21.625 117.3125 C14.4615391 120.89423045 3.75379894 117.61620856 -3.375 115.3125 C-10.62750501 111.80748998 -10.62750501 111.80748998 -12.375 108.3125 C-12.63073758 104.16690053 -12.56213937 100.00796995 -12.55859375 95.85546875 C-12.55758163 94.56835495 -12.55656952 93.28124115 -12.55552673 91.9551239 C-12.48820409 76.88863335 -11.54718077 61.87599239 -10.57904053 46.84545898 C-10.38768067 43.84344453 -10.20458447 40.84094975 -10.0217371 37.83840656 C-9.79995212 34.20068357 -9.57420792 30.56321011 -9.34765625 26.92578125 C-9.30602922 26.25447992 -9.2644022 25.5831786 -9.22151375 24.89153481 C-8.95949266 20.69697306 -8.67697891 16.50436878 -8.375 12.3125 C-8.30481659 11.30351654 -8.23463318 10.29453308 -8.162323 9.25497437 C-8.08869537 8.3538089 -8.01506775 7.45264343 -7.93920898 6.52416992 C-7.87837631 5.75111008 -7.81754364 4.97805023 -7.75486755 4.18156433 C-6.85007564 -0.2702881 -3.86274139 0.01520764 0 0 Z M-6.375 3.3125 C-6.74063779 6.13595198 -6.9873465 8.88190774 -7.15625 11.71875 C-7.21467575 12.57811157 -7.2731015 13.43747314 -7.33329773 14.32287598 C-7.52316486 17.15222386 -7.69947083 19.98222911 -7.875 22.8125 C-8.00242303 24.77477786 -8.13043899 26.7370173 -8.2590332 28.69921875 C-8.51779504 32.67674031 -8.7703672 36.65458713 -9.01806641 40.6328125 C-9.2866488 44.93881525 -9.56918319 49.24364658 -9.86082458 53.54814148 C-10.80769375 67.56101994 -11.58126351 81.57952461 -11.8125 95.625 C-11.84690186 96.74068359 -11.88130371 97.85636719 -11.91674805 99.00585938 C-11.97358587 105.10787486 -11.97358587 105.10787486 -9.1875 110.40234375 C-0.84596092 116.06763904 8.72821673 117.64239278 18.625 117.3125 C19.615 116.8175 19.615 116.8175 20.625 116.3125 C21.62182346 113.32202961 21.76952834 110.79229576 21.86401367 107.66479492 C22.36651941 92.43436362 26.72251202 76.51783486 37.625 65.3125 C38.285 64.9825 38.945 64.6525 39.625 64.3125 C39.74544476 70.62915841 39.56239337 76.88571157 39.125 83.1875 C37.22589785 97.52226213 37.22589785 97.52226213 41.625 110.3125 C47.14372821 114.16478871 53.18274322 117.3125 60 117.3125 C72.45949441 113.87539809 81.47343813 100.89476881 87.625 90.3125 C87.68107422 91.59833984 87.68107422 91.59833984 87.73828125 92.91015625 C88.0766433 102.09826398 88.0766433 102.09826398 91.625 110.3125 C96.78377086 114.09289593 102.9768759 117.23143058 109.4375 117.375 C122.65275771 112.9699141 131.56389463 98.51022023 138.625 87.3125 C138.63917969 88.61445312 138.65335938 89.91640625 138.66796875 91.2578125 C138.71488715 92.98440966 138.76313444 94.71097107 138.8125 96.4375 C138.81830078 97.2934375 138.82410156 98.149375 138.83007812 99.03125 C138.97458629 103.20593025 139.19782003 106.37323664 141.80859375 109.74609375 C147.01601549 114.49127556 153.26066735 116.96446559 160.25 117.6875 C165.74844886 115.44739121 169.49820799 111.49778197 173.625 107.3125 C174.33011719 106.60609375 175.03523438 105.8996875 175.76171875 105.171875 C181.42242835 99.16640705 185.49566898 92.41802438 189.625 85.3125 C189.59019531 86.61445312 189.55539062 87.91640625 189.51953125 89.2578125 C189.49138099 90.98436204 189.46408216 92.71092561 189.4375 94.4375 C189.41236328 95.2934375 189.38722656 96.149375 189.36132812 97.03125 C189.30171556 102.19767189 189.57306861 105.92576785 192.625 110.3125 C200.50194936 116.1704479 210.98089708 118.18923663 220.625 117.3125 C221.285 116.9825 221.945 116.6525 222.625 116.3125 C223.01157747 114.3122159 223.01157747 114.3122159 223.08203125 111.89453125 C223.13979736 110.97631592 223.19756348 110.05810059 223.25708008 109.11206055 C223.31661865 108.12633057 223.37615723 107.14060059 223.4375 106.125 C224.59531919 90.83167585 229.02087566 76.7764182 239.625 65.3125 C240.285 64.9825 240.945 64.6525 241.625 64.3125 C241.563125 65.240625 241.50125 66.16875 241.4375 67.125 C241.38372647 70.20806817 241.38372647 70.20806817 242.6875 72.1875 C245.83615803 74.01575305 248.05639176 73.79637908 251.625 73.3125 C253.33280352 72.19836932 253.33280352 72.19836932 254.85546875 70.78125 C255.76941406 69.9665625 256.68335938 69.151875 257.625 68.3125 C257.5935791 69.68801025 257.5935791 69.68801025 257.56152344 71.09130859 C257.49278054 74.53933035 257.44292848 77.98660935 257.40527344 81.43505859 C257.38533019 82.91890048 257.3581651 84.40266555 257.32324219 85.88623047 C256.95217873 99.75638817 256.95217873 99.75638817 262.96704102 111.94677734 C268.26404281 116.86648979 274.86363754 117.80767431 281.81640625 117.6171875 C290.76909312 116.64596417 298.55163495 113.87480719 305.078125 107.55078125 C307.30593152 104.32721272 307.34776257 101.81845936 306.94140625 98 C306.83699219 97.443125 306.73257812 96.88625 306.625 96.3125 C305.635 95.9825 304.645 95.6525 303.625 95.3125 C302.696875 95.8075 301.76875 96.3025 300.8125 96.8125 C297.14040871 98.54054296 295.47679653 98.32130385 291.625 97.3125 C290.78285358 93.71568045 290.54971191 90.53385953 290.7109375 86.84765625 C290.75420166 85.80601318 290.79746582 84.76437012 290.84204102 83.69116211 C290.92023071 82.04966187 290.92023071 82.04966187 291 80.375 C291.07335571 78.70159546 291.07335571 78.70159546 291.14819336 76.99438477 C291.50700983 69.08951428 291.96197414 61.19827569 292.625 53.3125 C293.99785156 53.34730469 293.99785156 53.34730469 295.3984375 53.3828125 C297.18121094 53.40988281 297.18121094 53.40988281 299 53.4375 C300.18335938 53.46070313 301.36671875 53.48390625 302.5859375 53.5078125 C305.73653817 53.64116229 305.73653817 53.64116229 307.625 51.3125 C308.1247514 48.91557309 308.1247514 48.91557309 308.3125 46.25 C308.44205078 44.90228516 308.44205078 44.90228516 308.57421875 43.52734375 C308.59097656 42.79644531 308.60773438 42.06554688 308.625 41.3125 C306.74675109 39.43425109 303.58564724 39.92147603 301.0625 39.75 C299.26619141 39.62431641 299.26619141 39.62431641 297.43359375 39.49609375 C296.50675781 39.43550781 295.57992188 39.37492187 294.625 39.3125 C294.67720703 38.20841797 294.67720703 38.20841797 294.73046875 37.08203125 C294.75753906 36.10621094 294.78460937 35.13039063 294.8125 34.125 C294.86470703 32.68060547 294.86470703 32.68060547 294.91796875 31.20703125 C294.56730813 27.7425043 293.77732349 26.04216349 291.625 23.3125 C283.03025893 17.96945846 273.62068992 16.34886323 263.625 17.3125 C261.22157592 19.71592408 261.28501031 20.57809788 260.9921875 23.8828125 C260.90839844 24.77871094 260.82460937 25.67460938 260.73828125 26.59765625 C260.65964844 27.53480469 260.58101562 28.47195313 260.5 29.4375 C260.37044922 30.85482422 260.37044922 30.85482422 260.23828125 32.30078125 C260.02585917 34.63742418 259.82178458 36.9744967 259.625 39.3125 C257.73828125 39.93359375 257.73828125 39.93359375 255.625 40.3125 C255.026875 39.673125 254.42875 39.03375 253.8125 38.375 C251.70693797 35.99583927 251.70693797 35.99583927 248.25 35.8125 C242.43645222 36.61436866 239.20680258 39.346876 235.625 43.8125 C231.40726785 49.72177644 227.92125132 56.42374605 225.625 63.3125 C225.68300781 62.14332031 225.74101563 60.97414063 225.80078125 59.76953125 C225.84769449 58.2213942 225.89319298 56.67321383 225.9375 55.125 C225.97939453 54.35607422 226.02128906 53.58714844 226.06445312 52.79492188 C226.15505577 48.57283867 226.04280854 46.85477763 223.3828125 43.40234375 C215.12436162 37.14416921 204.88957001 34.90363745 194.625 36.3125 C192.13231748 40.05152378 192.25189335 43.15950084 192.125 47.5 C191.84926404 56.6884955 190.10915153 64.0987823 185.9375 72.3125 C185.5880835 73.00730469 185.23866699 73.70210937 184.87866211 74.41796875 C182.15915414 79.65199356 179.09158421 84.37672725 174.625 88.3125 C174.295 88.3125 173.965 88.3125 173.625 88.3125 C173.52021442 79.21944034 173.58263508 70.14794064 174 61.0625 C174.0462854 59.86693481 174.0462854 59.86693481 174.09350586 58.6472168 C174.31263997 54.37797403 175.02399217 51.29549508 176.625 47.3125 C176.70146165 44.9804198 176.71643299 42.64404122 176.625 40.3125 C173.52168176 39.82773479 170.4172082 39.35077496 167.3125 38.875 C166.01989258 38.67293945 166.01989258 38.67293945 164.70117188 38.46679688 C154.01165749 36.83754004 143.43698319 36.09517591 132.625 36 C131.52671875 35.97099609 130.4284375 35.94199219 129.296875 35.91210938 C117.33721813 35.82000301 108.73685136 39.00025697 100.12109375 47.359375 C96.25918312 51.92839603 93.88110621 56.92583521 91.48730469 62.37695312 C82.13347903 83.37274299 82.13347903 83.37274299 76.625 88.3125 C75.635 88.3125 74.645 88.3125 73.625 88.3125 C73.64071045 87.12696533 73.6564209 85.94143066 73.67260742 84.7199707 C73.72699565 80.312488 73.76138246 75.90503485 73.78979492 71.49731445 C73.80486128 69.59133919 73.82531824 67.68539848 73.85131836 65.77954102 C73.88779642 63.03653424 73.90474792 60.29398672 73.91796875 57.55078125 C73.93345261 56.70163651 73.94893646 55.85249176 73.96488953 54.97761536 C73.96622956 50.24386235 73.68168014 47.16988374 70.625 43.3125 C66.03857765 39.599225 60.67793488 36.86757907 54.875 35.8125 C44.47081948 37.41314316 36.32185642 47.93534954 30.35839844 56.03222656 C28.00401604 59.38992931 25.78255686 62.82578919 23.625 66.3125 C24.09704117 54.27545014 24.78657126 42.29715367 25.96435547 30.30639648 C27.45062177 19.29271969 27.45062177 19.29271969 24.8125 8.9375 C18.94037619 2.99807391 8.48099131 1.18584335 0.4375 1.125 C-0.85220703 1.10373047 -0.85220703 1.10373047 -2.16796875 1.08203125 C-4.58233971 1.09994467 -4.58233971 1.09994467 -6.375 3.3125 Z " fill="#323541" transform="translate(1343.375,999.6875)"/>
<path d="M0 0 C9.59443358 -1.46064511 21.08048248 -0.01829821 29.1875 5.5625 C32 8 32 8 33 10 C33.31676886 17.45338493 33.11517913 24.83411259 32.22265625 32.23828125 C31.72022301 38.4702164 31.93023968 44.75257553 32 51 C42.7762786 37.74258509 47.28692495 22.88605587 47.67285156 5.96435547 C47.71900457 4.3066234 47.85119953 2.65168524 48 1 C54.32775452 -2.16387726 63.45965624 -0.15905776 69.9375 1.6875 C74.94737927 3.39582642 78.40778236 5.10843089 82 9 C83.08127777 12.24383331 83.04749902 14.3762947 82.9140625 17.77734375 C82.87023437 18.93169922 82.82640625 20.08605469 82.78125 21.27539062 C82.70390625 23.08813477 82.70390625 23.08813477 82.625 24.9375 C82.58117187 26.11119141 82.53734375 27.28488281 82.4921875 28.49414062 C82.19276198 36.01720688 81.69239669 43.50304478 81 51 C88.87564938 44.31763083 92.87575082 34.90638078 96.0625 25.3125 C99.17720184 15.9848309 102.85484184 7.70164381 112 3 C122.39434596 -2.01445987 136.98098548 -1.67118998 147.8125 1.75 C152.7927139 3.73512023 157.34642764 5.55558868 160.4375 10.125 C161.28681022 14.46591892 160.79469827 18.66528215 160 23 C159 24 159 24 156.3515625 24.21484375 C152.57737771 23.97290883 149.86253329 23.00406821 146.375 21.5625 C140.17235799 19.02505554 135.75434186 17.74983919 129 18 C128.34 18.33 127.68 18.66 127 19 C127.6375192 22.07050387 127.6375192 22.07050387 129.76245117 22.91967773 C130.89130737 23.29781616 130.89130737 23.29781616 132.04296875 23.68359375 C133.28336914 24.11575195 133.28336914 24.11575195 134.54882812 24.55664062 C135.41958984 24.84732422 136.29035156 25.13800781 137.1875 25.4375 C146.48093581 28.56814265 154.31787498 31.99949996 159.6875 40.75 C161.30687473 44.75988029 162.19922662 48.7606115 163 53 C164.10940611 51.1489635 165.21226581 49.29400283 166.3125 47.4375 C166.92738281 46.40496094 167.54226563 45.37242188 168.17578125 44.30859375 C171.56855447 38.15510571 173.43024893 33.15904612 173.9140625 26.1328125 C173.97403412 25.41261932 174.03400574 24.69242615 174.09579468 23.95040894 C174.28348748 21.67601193 174.45513598 19.40079184 174.625 17.125 C174.8046404 14.82810049 174.98768637 12.53155623 175.17562866 10.23532104 C175.29126269 8.8123506 175.40163098 7.38894062 175.5062561 5.96511841 C175.88897168 1.11102832 175.88897168 1.11102832 177 0 C187.47696351 -0.92354736 199.1594095 -0.18724968 207.75 6.5625 C210.7739045 9.83839655 211.01386197 11.37999168 210.9140625 15.84375 C210.8240718 17.39621529 210.72736023 18.94830119 210.625 20.5 C210.57609619 21.31082031 210.52719238 22.12164063 210.47680664 22.95703125 C210.15285934 28.15677414 209.70190898 33.33525329 209.1875 38.51953125 C208.87311329 42.67860547 208.91863376 46.83224019 209 51 C216.60132688 42.44850726 221.03220577 32.37021782 225.81640625 22.1015625 C230.44559509 12.29380638 234.66009277 5.9044026 244.88671875 1.7265625 C255.91523917 -2.06512844 270.18121858 -1.03161427 281 3 C281.99 3.66 282.98 4.32 284 5 C284.36328125 7.8984375 284.36328125 7.8984375 284.3125 11.375 C284.30863281 12.51710938 284.30476563 13.65921875 284.30078125 14.8359375 C284.01895746 17.80057739 283.54589341 19.49947121 282 22 C277.96400222 22.40359978 275.44137299 21.88823516 271.9375 20 C268.81487632 18.33142246 266.60381967 17.17626979 263 18 C256.30531965 25.56567193 256.69912403 36.34744193 256.625 45.875 C256.61122314 46.87378174 256.59744629 47.87256348 256.58325195 48.90161133 C256.61732094 54.30313532 256.83422696 58.39867355 260 63 C262.61307127 64.45438437 262.61307127 64.45438437 266 64 C271.92229523 61.69163042 271.92229523 61.69163042 277 58 C278.99958364 57.95919217 281.00045254 57.95745644 283 58 C283.62903816 62.75273274 284.14979104 67.12137967 281.5703125 71.3359375 C275.42023882 77.78240027 267.13308781 82.56252323 258.15234375 83.203125 C248.32623373 83.34639756 239.89538677 82.7895337 232.0625 76.375 C226.16085108 70.63143096 223.99243419 63.80370057 222 56 C221.59910156 56.60585937 221.19820312 57.21171875 220.78515625 57.8359375 C216.33986841 64.38794906 211.49391782 70.30006026 206 76 C205.401875 76.63550781 204.80375 77.27101563 204.1875 77.92578125 C200.64037626 81.36616284 197.52503646 83.05722381 192.53515625 83.296875 C186.25030039 82.56089804 179.40324922 79.90849055 174.8125 75.4375 C172.17900072 70.4429324 172.0992704 65.57719184 172 60 C171.38253906 60.72445313 170.76507812 61.44890625 170.12890625 62.1953125 C160.68087054 72.98074139 149.69560687 81.21145061 135 83 C122.17578466 83.71093731 108.6086705 83.26518747 98 75 C96.92534269 71.77602808 96.83308197 69.32529214 96.8125 65.9375 C96.79832031 64.87402344 96.78414062 63.81054688 96.76953125 62.71484375 C97 60 97 60 99 58 C103.47197814 58.35827007 107.202181 59.77356565 111.3125 61.5 C116.71658693 63.62832191 121.18849884 64.90775395 127 65 C129.19858228 64.07079034 129.19858228 64.07079034 131 63 C128.49733038 59.98658148 126.08786071 59.20911695 122.375 58.125 C113.44525341 55.27783442 107.4743348 51.69567957 101 45 C100.3709375 46.11117188 99.741875 47.22234375 99.09375 48.3671875 C81.44364476 79.19072099 81.44364476 79.19072099 69 83 C61.48424212 83.45065473 53.95919183 80.38591518 48.2734375 75.5234375 C45.36584574 72.04503017 45.68308049 67.62424933 45.4375 63.3125 C45.39431641 62.61060547 45.35113281 61.90871094 45.30664062 61.18554688 C45.2008264 59.45724794 45.09993419 57.7286489 45 56 C44.55011719 56.65484375 44.10023438 57.3096875 43.63671875 57.984375 C39.82669279 63.39018338 35.85454549 68.51860459 31.4375 73.4375 C30.56996094 74.40558594 29.70242188 75.37367187 28.80859375 76.37109375 C25.14121807 79.803839 21.55735904 82.69141972 16.41015625 83.3125 C8.01618751 82.19516639 1.52494758 79.69690615 -4 73 C-5.47261193 69.09624388 -5.165312 64.89479569 -5.1484375 60.78125 C-5.14629242 59.95371216 -5.14414734 59.12617432 -5.14193726 58.27355957 C-5.06032142 48.38149209 -4.47092085 38.51995841 -3.828125 28.65087891 C-3.62170145 25.44883275 -3.43160464 22.24606115 -3.2421875 19.04296875 C-3.11295188 16.99733415 -2.98277996 14.95175843 -2.8515625 12.90625 C-2.79626373 11.95327026 -2.74096497 11.00029053 -2.68399048 10.01843262 C-2.59412369 8.69929871 -2.59412369 8.69929871 -2.50244141 7.35351562 C-2.45358795 6.5825354 -2.4047345 5.81155518 -2.35440063 5.01721191 C-2 3 -2 3 0 0 Z M1 1 C-1.02584052 4.03876078 -1.28463038 4.92097656 -1.50244141 8.38525391 C-1.5623526 9.2711319 -1.62226379 10.15700989 -1.68399048 11.06973267 C-1.73928925 12.02898651 -1.79458801 12.98824036 -1.8515625 13.9765625 C-1.91532074 14.97521332 -1.97907898 15.97386414 -2.04476929 17.0027771 C-2.17834808 19.12593443 -2.30750653 21.24937372 -2.43261719 23.37304688 C-2.62142512 26.56457176 -2.82509506 29.75486665 -3.03125 32.9453125 C-3.61034768 42.15024905 -4.13046068 51.362579 -4.2734375 60.5859375 C-4.29583496 61.86259277 -4.31823242 63.13924805 -4.34130859 64.45458984 C-3.88087425 69.23744216 -2.778802 73.5193591 1.05078125 76.70703125 C2.17033203 77.25423828 2.17033203 77.25423828 3.3125 77.8125 C4.10914063 78.20308594 4.90578125 78.59367187 5.7265625 78.99609375 C10.91475486 81.28709965 14.41870553 82.78601423 20 81 C31.38348184 74.54443238 39.22463723 62.84436555 46 52 C46.05607422 53.86205078 46.05607422 53.86205078 46.11328125 55.76171875 C46.1789595 57.40367511 46.2454062 59.04560087 46.3125 60.6875 C46.34633789 61.91243164 46.34633789 61.91243164 46.38085938 63.16210938 C46.59050263 67.8695533 46.92054723 71.2109959 50 75 C55.01517876 79.13832448 60.74270251 81.81207899 67.25 82.1875 C73.11287766 80.33092208 76.74418665 76.31779122 81 72 C81.63164063 71.36707031 82.26328125 70.73414063 82.9140625 70.08203125 C90.51013821 61.94833375 95.76114308 51.74729629 101 42 C101.37769531 42.50789063 101.75539063 43.01578125 102.14453125 43.5390625 C109.17508881 52.33137571 117.9740818 56.05984213 128.6640625 58.9453125 C131 60 131 60 131.8359375 62.1171875 C131.89007812 62.73851562 131.94421875 63.35984375 132 64 C126.96931732 66.94703608 122.55968278 66.11825438 117 65 C111.2342425 63.28764261 105.61331222 61.15187936 100 59 C97.7893659 60.79796113 97.7893659 60.79796113 97.734375 63.2421875 C97.74210938 64.54542969 97.74210938 64.54542969 97.75 65.875 C97.74484375 66.73867187 97.7396875 67.60234375 97.734375 68.4921875 C98.02516018 71.23754174 98.40859141 72.74430974 100 75 C112.05708934 82.46096811 126.49507693 83.88022013 140.1875 80.875 C153.90111056 76.92824471 165.38963319 68.07161632 173 56 C173.01417969 57.01320313 173.02835938 58.02640625 173.04296875 59.0703125 C172.96194372 67.25499175 172.96194372 67.25499175 175.8125 74.625 C181.47125704 78.84132878 187.56972203 81.64514366 194.625 82.375 C207.10314747 77.29131029 216.34205439 63.13125282 223 52 C223.15855469 52.845625 223.31710937 53.69125 223.48046875 54.5625 C225.44855191 64.13108112 228.11456271 71.53797514 235.9296875 77.74609375 C243.85157593 82.54406768 253.8758472 83.28839119 262.78515625 81.4140625 C270.4132966 79.07519528 275.46708319 74.61260903 281 69 C281.33 68.67 281.66 68.34 282 68 C282.07179964 66.48071962 282.08392007 64.95832518 282.0625 63.4375 C282.04896484 62.19806641 282.04896484 62.19806641 282.03515625 60.93359375 C282.02355469 60.29550781 282.01195312 59.65742187 282 59 C278.20165178 59.5802095 275.50049437 60.70892248 272.1875 62.625 C268.84470084 64.3363136 266.34503332 65.41780184 262.5625 65.1875 C259 64 259 64 257.30078125 61.68359375 C255.43154478 56.39023042 255.56558341 51.44695549 255.625 45.875 C255.61339844 44.81023437 255.60179687 43.74546875 255.58984375 42.6484375 C255.62073962 34.16237234 255.84736246 23.52175813 262 17 C267.41963948 16.14986047 270.55455212 17.63725166 275.1328125 20.17578125 C277.69378051 21.30625039 279.42206259 20.96672653 282 20 C283.54197398 15.37407807 283.62465334 10.82619071 283 6 C281.20419566 3.66863744 281.20419566 3.66863744 278 3 C277.34128906 2.80148437 276.68257812 2.60296875 276.00390625 2.3984375 C264.71851639 -0.45621424 251.36510525 -0.72275355 241 5 C231.91430536 11.16640787 227.84505631 19.96724104 223.6875 29.8125 C215.87454659 47.75030227 215.87454659 47.75030227 208 53 C207.81727524 42.70757375 208.51374389 32.63667779 209.55273438 22.40234375 C209.65263672 21.25894531 209.75253906 20.11554688 209.85546875 18.9375 C209.95496826 17.91527344 210.05446777 16.89304687 210.15698242 15.83984375 C209.96759011 12.41369862 209.01839106 10.74129524 207 8 C199.417648 1.5550008 189.92864618 0.64891548 180.3359375 0.796875 C178.04151556 0.74408708 178.04151556 0.74408708 177 2 C176.79619196 4.24758671 176.65018742 6.50044377 176.52734375 8.75390625 C174.67099351 38.33090248 174.67099351 38.33090248 166 51 C164.99823838 52.66560843 163.99790277 54.33207679 163 56 C162.34 56.99 161.68 57.98 161 59 C160.94392578 57.58847656 160.94392578 57.58847656 160.88671875 56.1484375 C160.82097656 54.90320312 160.75523437 53.65796875 160.6875 52.375 C160.60048828 50.53035156 160.60048828 50.53035156 160.51171875 48.6484375 C159.50605556 41.47828927 156.01806242 37.23532299 150.49609375 32.7890625 C145.0912708 28.99238598 139.01414051 27.15318158 132.72753906 25.31860352 C130.53515625 24.625 130.53515625 24.625 127 23 C125.99609375 20.3125 125.99609375 20.3125 126 18 C131.39857329 15.30071335 137.27981793 16.93727402 142.70043945 18.74169922 C144.00139589 19.19724976 145.29957567 19.66082808 146.59448242 20.13330078 C150.38930314 21.51496119 153.99584823 22.46488294 158 23 C160.05880132 19.12460928 160.30133605 16.09221797 159.5859375 11.85546875 C158.56366237 8.61826418 156.90816319 7.66180754 154 6 C142.06688769 0.61272114 127.87193841 -1.78287853 115.203125 2.9140625 C104.78481842 8.04932709 100.51918716 15.62904499 96.83984375 26.39453125 C96.45957031 27.54308594 96.07929687 28.69164062 95.6875 29.875 C92.86129408 38.16889843 88.25560909 46.74439091 82 53 C81 52 81 52 80.8671875 49.71875 C80.88182257 43.68910286 80.99998537 37.70427476 81.33203125 31.68359375 C81.38955566 30.57371094 81.44708008 29.46382812 81.50634766 28.3203125 C81.62597354 26.08643609 81.75949564 23.85325531 81.90771484 21.62109375 C81.96266113 20.57953125 82.01760742 19.53796875 82.07421875 18.46484375 C82.16062622 17.06673462 82.16062622 17.06673462 82.2487793 15.64038086 C81.83180909 11.21493157 79.8188799 8.69604792 76.5 5.875 C68.46299625 1.56946228 60.06309818 0.16881639 51 1 C50.34 1.33 49.68 1.66 49 2 C48.78605521 4.37478717 48.67953278 6.68298841 48.625 9.0625 C47.90209011 25.21052236 43.56673198 41.17038775 32 53 C31.01 53.495 31.01 53.495 30 54 C30.06058594 53.15928955 30.12117187 52.3185791 30.18359375 51.45239258 C30.41088904 48.2674174 30.63400408 45.08218164 30.85449219 41.89672852 C30.94988045 40.53040373 31.04683004 39.16418685 31.14550781 37.7980957 C33.36276592 22.33088761 33.36276592 22.33088761 30.0625 7.9375 C21.13522713 2.28963349 11.63840708 -0.46017352 1 1 Z " fill="#343743" transform="translate(661,1035)"/>
<path d="M0 0 C3.09540599 2.89570237 3.82862458 5.80130223 4 10 C1.94549099 14.79385437 -1.30836992 17.81608752 -6.078125 19.9140625 C-13.16571326 22.49355891 -19.14883266 22.86312043 -26.203125 19.9921875 C-29.5564232 18.14058371 -31.32683806 15.34632389 -33 12 C-33.41197049 7.36533199 -32.95567673 4.64533463 -30 1 C-20.88891126 -4.5458801 -9.45854664 -4.72927332 0 0 Z " fill="#FFFFFF" transform="translate(870,1004)"/>
<path d="M0 0 C1.9375 0.125 1.9375 0.125 4 1 C5.93568546 4.77620114 6.25670746 7.94971979 6.265625 12.15625 C6.26820312 13.34476563 6.27078125 14.53328125 6.2734375 15.7578125 C6.26570313 16.99273438 6.25796875 18.22765625 6.25 19.5 C6.25773437 20.70398437 6.26546875 21.90796875 6.2734375 23.1484375 C6.21400189 50.78599811 6.21400189 50.78599811 -2 59 C-4.5625 58.75 -4.5625 58.75 -7 58 C-8.52821803 54.94356394 -8.18376234 51.74157554 -8.203125 48.38671875 C-8.20882507 47.62132278 -8.21452515 46.85592682 -8.22039795 46.06733704 C-8.22986023 44.43902977 -8.23638679 42.81070326 -8.24023438 41.18237305 C-8.24981348 38.73515145 -8.28076882 36.28881662 -8.3125 33.84179688 C-8.47466001 9.96959201 -8.47466001 9.96959201 -1 1 C-0.67 0.67 -0.34 0.34 0 0 Z " fill="#0A0B0D" transform="translate(1057,1047)"/>
<path d="M0 0 C0.77258065 30.91511189 0.77258065 30.91511189 -5.125 39.8125 C-8.65426215 42.49780816 -10.69646675 42.54792705 -15.01171875 42.30859375 C-17 42 -17 42 -19 41 C-18.66910159 26.53071478 -13.70634428 12.4841809 -3.91015625 1.69921875 C-2 0 -2 0 0 0 Z " fill="#0B0C0F" transform="translate(1154,1064)"/>
<path d="M0 0 C1.98828125 0.30859375 1.98828125 0.30859375 3.98828125 1.30859375 C3.43989838 15.23751874 -1.12617583 29.67754844 -10.609375 40.1875 C-13.01171875 42.30859375 -13.01171875 42.30859375 -15.01171875 42.30859375 C-15.74204251 11.43275225 -15.74204251 11.43275225 -9.88671875 2.55859375 C-6.35485416 -0.20547419 -4.35692192 -0.24164441 0 0 Z " fill="#0B0C0F" transform="translate(1481.01171875,1046.69140625)"/>
</svg>
